<svg width="746" height="416" viewBox="0 0 746 416" fill="none" xmlns="http://www.w3.org/2000/svg">
<path d="M51.4844 389.714C51.4844 389.714 -32.2495 321.063 13.8546 225.991C59.9586 130.921 -4.3079 98.0003 40.4005 78.416C85.1089 58.8317 109.834 101.488 233.606 66.0557C357.379 30.6236 606.04 -28.2352 662.836 15.5841C719.632 59.4035 557.19 179.776 633.941 178.864C789.247 177.023 759.975 341.722 684.854 394.867C646.76 421.819 51.4844 389.714 51.4844 389.714Z" fill="#E7F3FE"/>
<path d="M729.961 398.402C615.287 350.301 69.6493 371.298 34.2492 385.571C-1.15097 399.843 41.1437 409.451 132.253 404.166C223.361 398.882 340.588 404.753 441.278 407.583C541.965 410.412 804.301 429.585 729.961 398.402Z" fill="#9BD6E8"/>
<path d="M584.616 122.98C584.953 119.882 585.13 116.732 585.13 113.542C585.13 111.859 585.075 110.188 584.981 108.529L569.859 103.484C568.927 96.9084 567.099 90.6358 564.506 84.797L574.533 72.0719C572.215 67.8623 569.555 63.8794 566.59 60.1651L551.465 65.2547C547.055 60.6112 542.02 56.6061 536.492 53.3848L537.353 36.9972C533.132 35.0156 528.718 33.3939 524.151 32.1714L514.812 45.4634C511.172 44.8324 507.435 44.4972 503.621 44.4972C501.021 44.4972 498.456 44.6549 495.933 44.9532L487.286 31.1707C482.655 32.1418 478.165 33.5196 473.853 35.2646L473.872 51.6768C468.178 54.595 462.944 58.3215 458.312 62.716L443.474 56.8107C440.322 60.3648 437.459 64.1948 434.931 68.2689L444.294 81.5264C441.395 87.2272 439.247 93.3938 437.982 99.8931L422.626 104.108C422.289 107.206 422.112 110.356 422.112 113.545C422.112 115.228 422.164 116.899 422.26 118.558L437.383 123.603C438.312 130.179 440.14 136.452 442.738 142.29L432.71 155.015C435.031 159.225 437.688 163.208 440.654 166.922L455.779 161.833C460.188 166.476 465.224 170.484 470.751 173.703L469.891 190.09C474.111 192.072 478.525 193.694 483.092 194.916L492.432 181.624C496.071 182.255 499.809 182.59 503.623 182.59C506.223 182.59 508.787 182.432 511.311 182.134L519.957 195.917C524.591 194.946 529.079 193.568 533.39 191.823L533.371 175.411C539.066 172.492 544.3 168.766 548.931 164.371L563.77 170.277C566.922 166.723 569.785 162.893 572.313 158.818L562.95 145.561C565.849 139.86 567.997 133.694 569.261 127.194L584.616 122.98ZM503.621 146.512C485.965 146.512 471.65 131.751 471.65 113.542C471.65 95.3335 485.962 80.5726 503.621 80.5726C521.279 80.5726 535.591 95.3335 535.591 113.542C535.591 131.751 521.277 146.512 503.621 146.512Z" fill="#9EC8FF"/>
<path d="M547.225 151.146C546.955 151.146 546.685 151.052 546.463 150.86C545.956 150.424 545.887 149.647 546.307 149.125C554.342 139.16 558.768 126.524 558.768 113.542C558.768 107.327 557.783 101.222 555.838 95.4C555.623 94.7567 555.955 94.0543 556.579 93.8325C557.202 93.6107 557.884 93.9533 558.099 94.5965C560.13 100.677 561.16 107.053 561.16 113.542C561.16 127.098 556.538 140.296 548.147 150.702C547.906 150.993 547.567 151.146 547.225 151.146Z" fill="white"/>
<path d="M542.596 73.3264C542.302 73.3264 542.008 73.2155 541.776 72.9912C536.378 67.7489 530.124 63.7734 523.188 61.1805C522.567 60.9488 522.247 60.2415 522.471 59.6007C522.696 58.9599 523.382 58.6296 524.003 58.8613C531.247 61.5724 537.778 65.7204 543.416 71.1945C543.896 71.6603 543.92 72.4416 543.466 72.937C543.232 73.1958 542.914 73.3264 542.596 73.3264Z" fill="white"/>
<path d="M491.22 59.5834C490.685 59.5834 490.199 59.2113 490.063 58.6518C489.901 57.9913 490.29 57.3209 490.928 57.1557C495.428 55.985 500.086 55.391 504.77 55.391C505.43 55.391 505.965 55.9431 505.965 56.6234C505.965 57.3036 505.43 57.8557 504.77 57.8557C500.282 57.8557 495.823 58.425 491.514 59.5465C491.416 59.5711 491.318 59.5834 491.22 59.5834Z" fill="white"/>
<path d="M691.939 144.472C692.171 142.325 692.296 140.144 692.296 137.935C692.296 136.769 692.257 135.611 692.193 134.463L681.718 130.968C681.073 126.413 679.806 122.068 678.009 118.026L684.954 109.212C683.348 106.296 681.506 103.538 679.453 100.965L668.978 104.49C665.924 101.273 662.435 98.4981 658.609 96.27L659.204 84.9202C656.281 83.5474 653.225 82.426 650.061 81.5781L643.591 90.7837C641.07 90.345 638.482 90.1158 635.839 90.1158C634.037 90.1158 632.261 90.2242 630.514 90.4312L624.526 80.8856C621.316 81.5584 618.207 82.5122 615.222 83.7224L615.236 95.0895C611.293 97.1105 607.668 99.691 604.458 102.735L594.182 98.646C591.998 101.106 590.017 103.76 588.263 106.582L594.749 115.766C592.741 119.714 591.252 123.985 590.375 128.486L579.738 131.404C579.506 133.551 579.382 135.732 579.382 137.94C579.382 139.106 579.42 140.264 579.485 141.413L589.959 144.908C590.605 149.463 591.871 153.808 593.668 157.85L586.724 166.663C588.33 169.579 590.172 172.337 592.225 174.91L602.699 171.386C605.754 174.602 609.243 177.377 613.069 179.605L612.474 190.955C615.397 192.328 618.453 193.45 621.617 194.297L628.086 185.092C630.608 185.531 633.196 185.76 635.839 185.76C637.641 185.76 639.416 185.651 641.163 185.444L647.152 194.99C650.362 194.317 653.471 193.363 656.456 192.156L656.441 180.789C660.385 178.767 664.01 176.187 667.219 173.143L677.495 177.232C679.68 174.772 681.661 172.118 683.415 169.296L676.929 160.115C678.937 156.166 680.425 151.895 681.302 147.395L691.939 144.472ZM635.839 160.77C623.61 160.77 613.695 150.547 613.695 137.933C613.695 125.321 623.608 115.095 635.839 115.095C648.07 115.095 657.983 125.319 657.983 137.933C657.983 150.545 648.07 160.77 635.839 160.77Z" fill="#9EC8FF"/>
<path d="M666.041 164.357C665.771 164.357 665.501 164.263 665.279 164.071C664.772 163.634 664.703 162.858 665.124 162.336C670.634 155.501 673.669 146.835 673.669 137.93C673.669 133.666 672.993 129.479 671.66 125.486C671.445 124.843 671.777 124.141 672.401 123.919C673.024 123.697 673.705 124.039 673.92 124.683C675.34 128.934 676.062 133.39 676.062 137.928C676.062 147.407 672.831 156.632 666.964 163.908C666.725 164.206 666.383 164.357 666.041 164.357Z" fill="white"/>
<path d="M662.834 110.457C662.54 110.457 662.246 110.346 662.014 110.121C658.31 106.526 654.023 103.8 649.265 102.02C648.643 101.788 648.323 101.081 648.548 100.44C648.772 99.7995 649.458 99.4716 650.08 99.7033C655.144 101.599 659.711 104.5 663.651 108.327C664.132 108.793 664.156 109.574 663.702 110.07C663.47 110.326 663.152 110.457 662.834 110.457Z" fill="white"/>
<path d="M627.25 100.938C626.715 100.938 626.229 100.566 626.093 100.006C625.931 99.346 626.32 98.6756 626.958 98.5104C630.106 97.6922 633.361 97.2756 636.637 97.2756C637.297 97.2756 637.832 97.8277 637.832 98.508C637.832 99.1882 637.297 99.7403 636.637 99.7403C633.559 99.7403 630.5 100.13 627.544 100.899C627.446 100.926 627.348 100.938 627.25 100.938Z" fill="white"/>
<path d="M198.304 133.738L142.443 98.508L132.339 165.229C158.581 169.495 184.606 156.815 198.304 133.738Z" fill="#A2DFF2"/>
<path d="M198.364 133.659C198.515 133.405 198.711 133.055 198.703 133.068C210.502 112.685 210.977 87.3701 200.154 66.593C180.386 77.2749 192.158 70.7854 142.445 98.508C198.395 133.797 189.706 128.355 198.364 133.659Z" fill="#9CD499"/>
<path d="M81.0367 75.1725L142.443 98.508L200.046 66.3835C173.101 14.9926 100.573 21.1568 81.0367 75.1725Z" fill="#9EC8FF"/>
<path d="M132.339 165.229L142.443 98.508L81.0367 75.1725C66.435 115.546 92.3524 158.73 132.339 165.229Z" fill="#F39892"/>
<path d="M201.26 132.976C212.361 112.852 212.994 88.006 202.955 67.3102L202.991 67.2905L201.958 65.3187C201.937 65.2793 201.915 65.2399 201.894 65.2004L201.048 63.5787L201.017 63.5959C194.497 51.9159 185.203 42.6019 174.026 36.5955C163.079 30.7148 150.635 28.08 138.033 28.9846C111.777 30.8651 89.6567 47.3957 79.7964 72.3135L79.7606 72.2987L79.0054 74.3887L78.243 76.496L78.2789 76.5108C72.106 95.4222 74.1517 116.044 84.0048 133.44C94.0229 151.126 110.651 163.28 129.868 167.055L129.863 167.095L132.004 167.442C132.006 167.442 134.155 167.792 134.155 167.792L134.16 167.753C136.939 168.11 139.723 168.293 142.502 168.293C152.272 168.293 161.948 166.089 170.948 161.769C182.469 156.238 192.148 147.589 199.062 136.688L199.105 136.715L199.53 135.996L199.542 136.001L200.223 134.822C200.328 134.643 200.458 134.421 200.529 134.293L200.575 134.214C200.587 134.194 200.596 134.174 200.608 134.152L201.296 132.991L201.26 132.976ZM194.71 72.0596C195.998 71.3646 197.47 70.5709 199.222 69.6245C208.43 88.8637 207.828 111.884 197.592 130.581C197.592 130.583 197.179 130.329 197.179 130.329C194.896 128.934 193.905 128.328 189.357 125.469L146.799 98.6287L182.128 78.9262C187.314 76.0474 189.441 74.8989 194.71 72.0596ZM83.8686 73.8613C93.1267 50.6194 113.803 35.2128 138.332 33.4555C162.567 31.7179 184.874 43.9525 197.071 65.4962L180.058 74.9827C176.545 76.9323 171.636 79.673 163.416 84.2597C158.148 87.1976 151.522 90.8971 143.035 95.6292L142.512 95.9225L140.801 94.843L140.708 95.4592L113.803 85.2357L83.8686 73.8613ZM87.7544 131.18C78.5585 114.945 76.6275 95.7106 82.3535 78.0611L122.803 93.4332L140.024 99.9769L130.537 162.629C112.616 159.062 97.1105 147.698 87.7544 131.18ZM134.826 163.326L144.087 102.173L168.188 117.375C177.905 123.505 183.464 127.012 186.965 129.213L195.286 134.46C182.013 155.22 158.693 166.353 134.826 163.326Z" fill="#E7F3FE"/>
<path d="M313.655 386.579C411.588 386.579 490.979 304.701 490.979 203.7C490.979 102.699 411.588 20.8216 313.655 20.8216C215.722 20.8216 136.332 102.699 136.332 203.7C136.332 304.701 215.722 386.579 313.655 386.579Z" fill="#2E5B9A"/>
<path d="M313.421 353.338C392.526 353.338 456.654 287.201 456.654 205.618C456.654 124.034 392.526 57.8976 313.421 57.8976C234.316 57.8976 170.188 124.034 170.188 205.618C170.188 287.201 234.316 353.338 313.421 353.338Z" fill="#232E4F"/>
<path d="M313.655 341.601C388.785 341.601 449.69 278.788 449.69 201.304C449.69 123.821 388.785 61.008 313.655 61.008C238.525 61.008 177.621 123.821 177.621 201.304C177.621 278.788 238.525 341.601 313.655 341.601Z" fill="white"/>
<path d="M313.66 206.234C312.004 206.234 310.393 205.344 309.509 203.757C308.195 201.396 308.986 198.384 311.275 197.028L362.802 166.53C365.091 165.175 368.011 165.991 369.326 168.352C370.64 170.713 369.849 173.725 367.56 175.08L316.033 205.578C315.283 206.024 314.465 206.234 313.66 206.234Z" fill="#3E6BAB"/>
<path d="M313.658 205.001C312.41 205.001 311.198 204.329 310.539 203.131L271 131.424C270.022 129.649 270.622 127.391 272.343 126.383C274.063 125.373 276.252 125.994 277.23 127.769L316.769 199.478C317.747 201.253 317.147 203.51 315.426 204.518C314.867 204.846 314.257 205.001 313.658 205.001Z" fill="#F37168"/>
<path d="M320.232 201.304C320.232 205.051 317.288 208.087 313.655 208.087C310.023 208.087 307.079 205.051 307.079 201.304C307.079 197.558 310.023 194.519 313.655 194.519C317.288 194.519 320.232 197.558 320.232 201.304Z" fill="#212D51"/>
<path d="M306.66 106.279H300.459V85.0755H294.477V80.5578L306.66 78.6205V106.279Z" fill="#212D51"/>
<path d="M334.047 106.279H315.292V102.104L323.905 92.7653C324.997 91.4738 325.8 90.3228 326.316 89.3098C326.833 88.2968 327.091 87.417 327.091 86.6702C327.091 85.6079 326.83 84.76 326.309 84.1266C325.788 83.4932 325.004 83.1777 323.963 83.1777C323.03 83.1777 322.297 83.5869 321.764 84.4027C321.231 85.2185 320.963 86.261 320.963 87.5254H314.888L314.853 87.412C314.79 84.8562 315.601 82.6897 317.283 80.9102C318.963 79.1332 321.19 78.2435 323.965 78.2435C326.909 78.2435 329.208 78.9902 330.857 80.4838C332.506 81.9774 333.333 84.0206 333.333 86.6159C333.333 88.3634 332.893 89.9063 332.016 91.2471C331.139 92.5878 329.521 94.5818 327.167 97.2263L323.542 101.231L323.597 101.345H334.052V106.279H334.047Z" fill="#212D51"/>
<path d="M315.402 291.016C316.458 291.016 317.395 291.107 318.217 291.292C319.039 291.477 319.948 291.77 320.942 292.174L319.912 296.845C319.054 296.579 318.301 296.379 317.658 296.246C317.013 296.113 316.274 296.046 315.44 296.046C313.968 296.046 312.788 296.581 311.896 297.651C311.007 298.721 310.58 300.281 310.618 302.331L310.673 302.425C311.213 301.792 311.93 301.299 312.826 300.944C313.722 300.589 314.74 300.411 315.883 300.411C318.275 300.411 320.136 301.301 321.47 303.078C322.801 304.855 323.468 307.13 323.468 309.903C323.468 312.636 322.588 314.911 320.827 316.727C319.066 318.544 316.817 319.451 314.081 319.451C311.148 319.451 308.78 318.458 306.976 316.471C305.171 314.485 304.271 311.764 304.271 308.308V302.745C304.271 299.1 305.31 296.234 307.389 294.146C309.466 292.059 312.138 291.016 315.402 291.016ZM314.169 305.348C313.311 305.348 312.57 305.469 311.951 305.708C311.332 305.947 310.845 306.282 310.489 306.711V308.338C310.489 310.329 310.804 311.857 311.438 312.922C312.068 313.987 312.95 314.519 314.078 314.519C315.01 314.519 315.773 314.066 316.361 313.159C316.948 312.252 317.245 311.175 317.245 309.925C317.245 308.525 316.96 307.413 316.389 306.588C315.818 305.76 315.077 305.348 314.169 305.348Z" fill="#212D51"/>
<path d="M204.355 208.129C205.596 208.129 206.618 207.671 207.429 206.754C208.239 205.837 208.643 204.568 208.643 202.948V201.733C208.04 202.492 207.342 203.064 206.544 203.451C205.746 203.838 204.9 204.03 204.004 204.03C201.562 204.03 199.652 203.18 198.271 201.477C196.889 199.774 196.201 197.45 196.201 194.502C196.201 191.756 197.074 189.425 198.816 187.507C200.558 185.59 202.804 184.631 205.553 184.631C208.251 184.631 210.476 185.637 212.225 187.65C213.974 189.661 214.849 192.427 214.849 195.946V202.515C214.849 205.704 213.855 208.26 211.866 210.185C209.878 212.107 207.376 213.071 204.358 213.071C203.438 213.071 202.484 212.967 201.495 212.758C200.508 212.548 199.564 212.255 198.67 211.875L199.315 207.301C200.173 207.592 200.988 207.804 201.755 207.937C202.517 208.063 203.385 208.129 204.355 208.129ZM205.369 199.416C206.069 199.416 206.697 199.291 207.254 199.037C207.813 198.783 208.275 198.436 208.643 197.992V195.145C208.643 193.336 208.351 191.953 207.768 190.997C207.185 190.041 206.439 189.565 205.531 189.565C204.575 189.565 203.815 190.066 203.258 191.064C202.699 192.064 202.422 193.208 202.422 194.499C202.422 196.018 202.668 197.218 203.158 198.095C203.65 198.975 204.386 199.416 205.369 199.416Z" fill="#212D51"/>
<path d="M418.075 196.171H421.003C422.119 196.171 422.979 195.86 423.579 195.241C424.181 194.62 424.48 193.76 424.48 192.661C424.48 191.788 424.21 191.054 423.67 190.46C423.13 189.866 422.343 189.568 421.313 189.568C420.503 189.568 419.791 189.809 419.179 190.29C418.565 190.77 418.259 191.392 418.259 192.151H412.223L412.187 192.037C412.113 189.836 412.954 188.052 414.708 186.684C416.462 185.319 418.591 184.633 421.094 184.633C424.002 184.633 426.327 185.321 428.069 186.694C429.812 188.067 430.684 190.014 430.684 192.53C430.684 193.782 430.306 194.938 429.551 195.996C428.796 197.053 427.787 197.879 426.523 198.473C427.96 199.017 429.083 199.843 429.89 200.95C430.701 202.056 431.104 203.382 431.104 204.925C431.104 207.456 430.165 209.445 428.289 210.894C426.411 212.344 424.014 213.068 421.094 213.068C418.577 213.068 416.379 212.388 414.495 211.028C412.612 209.667 411.702 207.695 411.761 205.115L411.797 205.001H417.872C417.872 205.886 418.207 206.631 418.876 207.232C419.545 207.833 420.358 208.134 421.316 208.134C422.408 208.134 423.278 207.819 423.93 207.185C424.58 206.552 424.905 205.756 424.905 204.794C424.905 203.454 424.566 202.475 423.885 201.861C423.204 201.248 422.243 200.94 421.005 200.94H418.078V196.171H418.075Z" fill="#212D51"/>
<path d="M618.183 240.813C607.13 240.813 598.137 231.539 598.137 220.139C598.137 208.74 607.13 199.466 618.183 199.466C629.236 199.466 638.229 208.74 638.229 220.139C638.229 231.539 629.236 240.813 618.183 240.813ZM618.183 204.395C609.766 204.395 602.917 211.459 602.917 220.139C602.917 228.82 609.766 235.884 618.183 235.884C626.6 235.884 633.449 228.82 633.449 220.139C633.449 211.459 626.602 204.395 618.183 204.395Z" fill="#9BD6E8"/>
<path d="M593.042 240.813C581.989 240.813 572.997 231.539 572.997 220.139C572.997 208.74 581.989 199.466 593.042 199.466C604.095 199.466 613.088 208.74 613.088 220.139C613.088 231.539 604.095 240.813 593.042 240.813ZM593.042 204.395C584.625 204.395 577.776 211.459 577.776 220.139C577.776 228.82 584.625 235.884 593.042 235.884C601.459 235.884 608.308 228.82 608.308 220.139C608.308 211.459 601.459 204.395 593.042 204.395Z" fill="#9BD6E8"/>
<path d="M565.772 240.813C554.719 240.813 545.727 231.539 545.727 220.139C545.727 208.74 554.719 199.466 565.772 199.466C576.825 199.466 585.818 208.74 585.818 220.139C585.818 231.539 576.825 240.813 565.772 240.813ZM565.772 204.395C557.355 204.395 550.506 211.459 550.506 220.139C550.506 228.82 557.355 235.884 565.772 235.884C574.189 235.884 581.038 228.82 581.038 220.139C581.036 211.459 574.189 204.395 565.772 204.395Z" fill="#9BD6E8"/>
<path d="M540.629 240.813C529.576 240.813 520.583 231.539 520.583 220.139C520.583 208.74 529.576 199.466 540.629 199.466C551.682 199.466 560.675 208.74 560.675 220.139C560.675 231.539 551.682 240.813 540.629 240.813ZM540.629 204.395C532.212 204.395 525.363 211.459 525.363 220.139C525.363 228.82 532.212 235.884 540.629 235.884C549.046 235.884 555.895 228.82 555.895 220.139C555.895 211.459 549.046 204.395 540.629 204.395Z" fill="#9BD6E8"/>
<path d="M514.506 240.813C503.453 240.813 494.461 231.539 494.461 220.139C494.461 208.74 503.453 199.466 514.506 199.466C525.559 199.466 534.55 208.74 534.55 220.139C534.55 231.539 525.559 240.813 514.506 240.813ZM514.506 204.395C506.089 204.395 499.24 211.459 499.24 220.139C499.24 228.82 506.089 235.884 514.506 235.884C522.923 235.884 529.772 228.82 529.772 220.139C529.77 211.459 522.923 204.395 514.506 204.395Z" fill="#9BD6E8"/>
<path d="M489.363 240.813C478.31 240.813 469.317 231.539 469.317 220.139C469.317 208.74 478.31 199.466 489.363 199.466C500.416 199.466 509.409 208.74 509.409 220.139C509.409 231.539 500.416 240.813 489.363 240.813ZM489.363 204.395C480.946 204.395 474.097 211.459 474.097 220.139C474.097 228.82 480.946 235.884 489.363 235.884C497.78 235.884 504.629 228.82 504.629 220.139C504.629 211.459 497.78 204.395 489.363 204.395Z" fill="#9BD6E8"/>
<path d="M461.271 240.813C450.218 240.813 441.225 231.539 441.225 220.139C441.225 208.74 450.218 199.466 461.271 199.466C472.324 199.466 481.317 208.74 481.317 220.139C481.317 231.539 472.324 240.813 461.271 240.813ZM461.271 204.395C452.854 204.395 446.005 211.459 446.005 220.139C446.005 228.82 452.854 235.884 461.271 235.884C469.688 235.884 476.537 228.82 476.537 220.139C476.535 211.459 469.688 204.395 461.271 204.395Z" fill="#9BD6E8"/>
<path d="M638.511 398.402H359.91C356.724 398.402 354.628 395.74 355.226 392.454L385.495 226.089C386.093 222.804 389.159 220.142 392.344 220.142H670.945C674.131 220.142 676.226 222.804 675.629 226.089L645.36 392.454C644.762 395.737 641.696 398.402 638.511 398.402Z" fill="#212D51"/>
<path d="M643.723 398.402H365.122C361.936 398.402 359.841 395.74 360.438 392.454L390.707 226.089C391.305 222.804 394.371 220.142 397.556 220.142H676.157C679.343 220.142 681.439 222.804 680.841 226.089L650.572 392.454C649.975 395.737 646.908 398.402 643.723 398.402Z" fill="#2E5B9A"/>
<path d="M699.936 398.402H421.333C418.147 398.402 415.11 395.74 414.548 392.454L386.105 226.089C385.543 222.804 387.67 220.142 390.855 220.142H669.456C672.642 220.142 675.679 222.804 676.241 226.089L704.684 392.454C705.248 395.737 703.121 398.402 699.936 398.402Z" fill="#212D51"/>
<path d="M705.743 398.402H427.142C423.957 398.402 420.919 395.74 420.358 392.454L391.914 226.089C391.353 222.804 393.479 220.142 396.665 220.142H675.266C678.451 220.142 681.489 222.804 682.05 226.089L710.494 392.454C711.055 395.737 708.929 398.402 705.743 398.402Z" fill="#3E6BAB"/>
<path d="M631.418 236.389C632.378 239.154 631.54 241.397 629.542 241.397C627.544 241.397 625.149 239.154 624.186 236.389C623.223 233.624 624.064 231.381 626.062 231.381C628.06 231.381 630.457 233.621 631.418 236.389Z" fill="#212D51"/>
<path d="M605.907 236.389C606.867 239.154 606.028 241.397 604.031 241.397C602.033 241.397 599.638 239.154 598.675 236.389C597.712 233.624 598.553 231.381 600.551 231.381C602.549 231.381 604.946 233.621 605.907 236.389Z" fill="#212D51"/>
<path d="M577.58 236.389C578.541 239.154 577.702 241.397 575.704 241.397C573.706 241.397 571.312 239.154 570.349 236.389C569.386 233.624 570.227 231.381 572.225 231.381C574.223 231.381 576.62 233.621 577.58 236.389Z" fill="#212D51"/>
<path d="M552.067 236.389C553.027 239.154 552.189 241.397 550.191 241.397C548.193 241.397 545.798 239.154 544.835 236.389C543.872 233.624 544.713 231.381 546.711 231.381C548.709 231.381 551.106 233.621 552.067 236.389Z" fill="#212D51"/>
<path d="M527.409 236.857C528.369 239.623 527.531 241.866 525.533 241.866C523.535 241.866 521.14 239.623 520.177 236.857C519.216 234.092 520.055 231.849 522.053 231.849C524.051 231.849 526.446 234.092 527.409 236.857Z" fill="#212D51"/>
<path d="M503.224 236.857C504.185 239.623 503.346 241.866 501.348 241.866C499.35 241.866 496.955 239.623 495.992 236.857C495.032 234.092 495.871 231.849 497.868 231.849C499.866 231.849 502.261 234.092 503.224 236.857Z" fill="#212D51"/>
<path d="M476.274 236.857C477.235 239.623 476.396 241.866 474.398 241.866C472.403 241.866 470.006 239.623 469.043 236.857C468.082 234.092 468.921 231.849 470.919 231.849C472.916 231.849 475.313 234.092 476.274 236.857Z" fill="#212D51"/>
<path d="M626.617 238.607C625.771 238.607 624.948 238.141 624.516 237.321C623.885 236.125 624.313 234.629 625.472 233.979C630.392 231.216 633.451 225.914 633.451 220.139C633.451 211.459 626.602 204.395 618.185 204.395C616.866 204.395 615.796 203.291 615.796 201.93C615.796 200.57 616.866 199.466 618.185 199.466C629.238 199.466 638.231 208.74 638.231 220.139C638.231 227.718 634.219 234.681 627.759 238.307C627.393 238.511 627.001 238.607 626.617 238.607Z" fill="#9BD6E8"/>
<path d="M601.368 238.668C600.515 238.668 599.691 238.194 599.26 237.366C598.637 236.166 599.077 234.672 600.238 234.029C605.216 231.279 608.308 225.957 608.308 220.141C608.308 211.719 601.925 204.811 593.774 204.414C592.454 204.35 591.436 203.196 591.498 201.836C591.561 200.475 592.684 199.43 593.998 199.489C604.702 200.009 613.088 209.079 613.088 220.138C613.088 227.776 609.03 234.764 602.496 238.372C602.135 238.574 601.748 238.668 601.368 238.668Z" fill="#9BD6E8"/>
<path d="M573.283 239.089C572.387 239.089 571.527 238.567 571.121 237.674C570.559 236.442 571.07 234.973 572.265 234.394C577.595 231.806 581.038 226.211 581.038 220.141C581.038 211.709 574.648 204.801 566.489 204.414C565.17 204.352 564.152 203.199 564.212 201.838C564.271 200.478 565.383 199.42 566.709 199.489C577.425 199.997 585.818 209.069 585.818 220.141C585.818 228.111 581.299 235.456 574.301 238.852C573.972 239.013 573.625 239.089 573.283 239.089Z" fill="#9BD6E8"/>
<path d="M547.634 239.326C546.709 239.326 545.829 238.769 545.44 237.84C544.916 236.59 545.473 235.138 546.685 234.598C552.279 232.102 555.895 226.428 555.895 220.141C555.895 211.709 549.502 204.801 541.344 204.414C540.024 204.352 539.006 203.199 539.066 201.838C539.126 200.478 540.247 199.42 541.563 199.489C552.279 199.997 560.675 209.067 560.675 220.141C560.675 228.395 555.929 235.843 548.582 239.121C548.274 239.259 547.951 239.326 547.634 239.326Z" fill="#9BD6E8"/>
<path d="M522.476 238.861C521.604 238.861 520.763 238.368 520.342 237.51C519.745 236.295 520.215 234.814 521.394 234.197C526.56 231.499 529.77 226.113 529.77 220.144C529.77 211.757 523.415 204.851 515.302 204.422C513.983 204.353 512.97 203.194 513.039 201.834C513.106 200.473 514.234 199.433 515.548 199.5C526.204 200.064 534.552 209.132 534.552 220.146C534.552 227.984 530.339 235.053 523.554 238.597C523.208 238.774 522.839 238.861 522.476 238.861Z" fill="#9BD6E8"/>
<path d="M498.167 238.393C497.34 238.393 496.537 237.95 496.095 237.159C495.436 235.978 495.83 234.472 496.972 233.792C501.697 230.985 504.629 225.755 504.629 220.14C504.629 211.967 498.688 205.229 490.809 204.465C489.495 204.337 488.529 203.136 488.653 201.781C488.775 200.425 489.941 199.427 491.256 199.558C496.203 200.036 500.784 202.389 504.151 206.183C507.542 210.003 509.409 214.957 509.409 220.14C509.409 227.512 505.556 234.381 499.357 238.063C498.982 238.287 498.571 238.393 498.167 238.393Z" fill="#9BD6E8"/>
<path d="M470.945 237.839C470.166 237.839 469.403 237.447 468.945 236.727C468.22 235.589 468.529 234.061 469.63 233.314C473.954 230.388 476.535 225.464 476.535 220.14C476.535 212.248 470.821 205.534 463.245 204.526C461.935 204.351 461.013 203.117 461.18 201.766C461.35 200.415 462.547 199.464 463.857 199.637C473.81 200.96 481.314 209.774 481.314 220.138C481.314 227.127 477.928 233.592 472.254 237.432C471.851 237.708 471.397 237.839 470.945 237.839Z" fill="#9BD6E8"/>
<path d="M696.659 392.937H434.357C431.582 392.937 428.937 390.618 428.447 387.757L405.577 253.989C405.087 251.128 406.941 248.809 409.716 248.809H672.018C674.793 248.809 677.438 251.128 677.928 253.989L700.798 387.757C701.288 390.618 699.434 392.937 696.659 392.937Z" fill="white"/>
<path d="M690.747 384.22H437.289L437.253 384.015L415.626 257.521H669.083L669.119 257.726L690.747 384.22ZM437.691 383.727H690.178L668.684 258.017H416.197L437.691 383.727Z" fill="#9EC8FF"/>
<path d="M686.147 358.486H433.174V358.98H686.147V358.486Z" fill="#9EC8FF"/>
<path d="M681.831 333.246H428.858V333.739H681.831V333.246Z" fill="#9EC8FF"/>
<path d="M677.515 308.005H424.542V308.498H677.515V308.005Z" fill="#9EC8FF"/>
<path d="M673.201 282.764H420.229V283.258H673.201V282.764Z" fill="#9EC8FF"/>
<path d="M632.962 257.76L632.491 257.846L653.876 384.077L654.346 383.991L632.962 257.76Z" fill="#9EC8FF"/>
<path d="M596.823 257.758L596.353 257.844L617.737 384.075L618.208 383.989L596.823 257.758Z" fill="#9EC8FF"/>
<path d="M560.685 257.755L560.215 257.841L581.6 384.072L582.07 383.986L560.685 257.755Z" fill="#9EC8FF"/>
<path d="M524.547 257.754L524.076 257.84L545.461 384.072L545.931 383.985L524.547 257.754Z" fill="#9EC8FF"/>
<path d="M488.408 257.752L487.938 257.838L509.322 384.07L509.793 383.984L488.408 257.752Z" fill="#9EC8FF"/>
<path d="M452.27 257.75L451.799 257.837L473.184 384.068L473.655 383.982L452.27 257.75Z" fill="#9EC8FF"/>
<path d="M662.146 273.707H653.64C650.395 273.707 647.274 270.968 646.7 267.624C646.127 264.279 648.314 261.541 651.559 261.541H660.064C663.31 261.541 666.431 264.279 667.004 267.624C667.578 270.971 665.391 273.707 662.146 273.707Z" fill="#F39892"/>
<path d="M673.942 324.641H659.264C657.718 324.641 656.229 323.335 655.956 321.741L654.869 315.374C654.596 313.78 655.638 312.473 657.185 312.473H671.863C673.409 312.473 674.898 313.78 675.17 315.374L676.258 321.741C676.53 323.338 675.488 324.641 673.942 324.641Z" fill="#F39892"/>
<path d="M487.671 304.552H467.709C465.503 304.552 463.379 302.689 462.989 300.414L461.333 290.72C460.943 288.445 462.43 286.582 464.638 286.582H484.6C486.806 286.582 488.93 288.445 489.32 290.72L490.976 300.414C491.363 302.689 489.877 304.552 487.671 304.552Z" fill="#9EC8FF"/>
<path d="M484.426 302.021H470.087C468.502 302.021 466.975 300.682 466.696 299.048L465.506 292.086C465.226 290.452 466.294 289.113 467.879 289.113H482.218C483.802 289.113 485.329 290.452 485.609 292.086L486.799 299.048C487.081 300.682 486.01 302.021 484.426 302.021Z" fill="white"/>
<path d="M645.458 380.104H625.496C623.29 380.104 621.165 378.241 620.776 375.966L619.12 366.272C618.73 363.997 620.217 362.134 622.425 362.134H642.387C644.593 362.134 646.717 363.995 647.107 366.272L648.763 375.966C649.15 378.243 647.664 380.104 645.458 380.104Z" fill="#9EC8FF"/>
<path d="M642.212 377.573H627.874C626.289 377.573 624.762 376.234 624.483 374.6L623.292 367.638C623.013 366.004 624.081 364.665 625.665 364.665H640.004C641.589 364.665 643.116 366.004 643.395 367.638L644.586 374.6C644.868 376.237 643.797 377.573 642.212 377.573Z" fill="white"/>
<path d="M560.295 291.817H544.656C543.6 291.817 542.584 290.925 542.398 289.835C542.211 288.746 542.923 287.854 543.98 287.854H559.619C560.675 287.854 561.691 288.746 561.877 289.835C562.063 290.927 561.351 291.817 560.295 291.817Z" fill="#9EC8FF"/>
<path d="M561.358 298.043H545.719C544.663 298.043 543.647 297.151 543.461 296.061C543.275 294.972 543.987 294.08 545.043 294.08H560.682C561.738 294.08 562.754 294.972 562.94 296.061C563.127 297.151 562.415 298.043 561.358 298.043Z" fill="#9EC8FF"/>
<path d="M538.567 366.945H522.928C521.872 366.945 520.856 366.053 520.67 364.963C520.483 363.874 521.195 362.982 522.252 362.982H537.89C538.947 362.982 539.962 363.874 540.149 364.963C540.335 366.055 539.623 366.945 538.567 366.945Z" fill="#9EC8FF"/>
<path d="M539.633 373.171H523.994C522.937 373.171 521.922 372.279 521.735 371.189C521.549 370.1 522.261 369.208 523.317 369.208H538.956C540.013 369.208 541.028 370.1 541.215 371.189C541.401 372.279 540.689 373.171 539.633 373.171Z" fill="#9EC8FF"/>
<path d="M449.434 319.833H433.795C432.739 319.833 431.723 318.941 431.537 317.851C431.351 316.762 432.063 315.87 433.119 315.87H448.758C449.814 315.87 450.83 316.762 451.016 317.851C451.203 318.941 450.491 319.833 449.434 319.833Z" fill="#9EC8FF"/>
<path d="M450.5 326.056H434.861C433.805 326.056 432.789 325.164 432.603 324.075C432.417 322.985 433.129 322.093 434.185 322.093H449.824C450.88 322.093 451.896 322.985 452.082 324.075C452.269 325.166 451.556 326.056 450.5 326.056Z" fill="#9EC8FF"/>
<path d="M498.877 355.908H475.71C473.705 355.908 471.777 354.218 471.423 352.15L469.587 341.421C469.234 339.353 470.584 337.662 472.589 337.662H495.756C497.761 337.662 499.689 339.353 500.043 341.421L501.878 352.15C502.232 354.215 500.882 355.908 498.877 355.908Z" fill="#9CD499"/>
<path d="M484.82 351.516C484.698 351.516 484.581 351.467 484.49 351.381L479.288 346.303C479.096 346.116 479.087 345.803 479.269 345.606C479.45 345.409 479.754 345.399 479.945 345.586L484.779 350.306L492.114 341.359C492.283 341.152 492.587 341.125 492.788 341.3C492.988 341.475 493.015 341.786 492.845 341.995L485.186 351.339C485.1 351.442 484.978 351.506 484.846 351.514C484.837 351.516 484.83 351.516 484.82 351.516Z" fill="white"/>
<path d="M593.981 279.082H570.815C568.81 279.082 566.881 277.391 566.527 275.323L564.692 264.595C564.338 262.527 565.688 260.836 567.694 260.836H590.86C592.865 260.836 594.794 262.527 595.148 264.595L596.983 275.323C597.337 277.389 595.986 279.082 593.981 279.082Z" fill="#9CD499"/>
<path d="M579.925 274.69C579.803 274.69 579.686 274.641 579.595 274.554L574.392 269.477C574.201 269.29 574.191 268.977 574.373 268.78C574.555 268.583 574.858 268.573 575.049 268.76L579.884 273.48L587.218 264.533C587.388 264.326 587.691 264.299 587.892 264.474C588.093 264.649 588.119 264.959 587.95 265.169L580.29 274.513C580.204 274.616 580.082 274.68 579.951 274.688C579.944 274.69 579.934 274.69 579.925 274.69Z" fill="white"/>
<path d="M601.273 346.148C602.073 350.836 599.038 354.637 594.493 354.637C589.947 354.637 585.612 350.836 584.809 346.148C584.006 341.46 587.044 337.66 591.589 337.66C596.137 337.66 600.472 341.46 601.273 346.148Z" fill="#9EC8FF"/>
<path d="M499.106 372.04C499.907 376.727 496.872 380.528 492.326 380.528C487.781 380.528 483.446 376.727 482.643 372.04C481.842 367.352 484.877 363.551 489.423 363.551C493.968 363.551 498.303 367.352 499.106 372.04Z" fill="#9EC8FF"/>
<path d="M89.1405 204.649H126.797C126.797 225.954 109.798 243.485 89.1405 243.485C68.4831 243.485 51.4844 225.954 51.4844 204.649C51.4844 183.344 68.4831 165.813 89.1405 165.813V204.649Z" fill="#9EC8FF"/>
<path d="M133.101 199.212C133.101 177.764 116.241 160.376 95.4448 160.376V199.212H133.101Z" fill="#F39892"/>
<path d="M81.2231 336.622H57.9345V387.313H81.2231V336.622Z" fill="#9EC8FF"/>
<path d="M153.214 283.656H129.923V387.311H153.214V283.656Z" fill="#9EC8FF"/>
<path d="M189.206 334.002H165.918V387.311H189.206V334.002Z" fill="#9EC8FF"/>
<path d="M225.202 318.914H201.913V387.313H225.202V318.914Z" fill="#9EC8FF"/>
<path d="M117.218 303.154H93.9297V387.313H117.218V303.154Z" fill="#9EC8FF"/>
<path d="M261.316 258.012H238.028V387.313H261.316V258.012Z" fill="#9EC8FF"/>
<path d="M81.1729 339.023H60.2645V389.714H81.1729V339.023Z" fill="#5D9EF5"/>
<path d="M153.161 286.06H132.253V389.714H153.161V286.06Z" fill="#5D9EF5"/>
<path d="M189.156 336.405H168.248V389.714H189.156V336.405Z" fill="#5D9EF5"/>
<path d="M225.149 321.314H204.241V389.714H225.149V321.314Z" fill="#5D9EF5"/>
<path d="M117.166 305.555H96.2574V389.714H117.166V305.555Z" fill="#5D9EF5"/>
<path d="M261.264 260.412H240.355V389.714H261.264V260.412Z" fill="#5D9EF5"/>
<path d="M51.4868 322.749C50.3516 322.749 49.2356 322.194 48.5402 321.161C47.4098 319.485 47.8137 317.181 49.4387 316.015L140.662 250.667C142.153 249.6 144.185 249.849 145.389 251.251L178.913 290.242L250.729 219.407C252.161 217.998 254.429 218.047 255.798 219.523C257.167 221 257.115 223.339 255.686 224.751L181.179 298.24C180.474 298.935 179.523 299.305 178.555 299.263C177.582 299.221 176.667 298.772 176.019 298.021L142.137 258.615L53.5277 322.091C52.904 322.534 52.1918 322.749 51.4868 322.749Z" fill="#F37168"/>
<path d="M251.982 241.745C251.743 241.745 251.501 241.72 251.26 241.668C249.319 241.259 248.069 239.305 248.466 237.306L251.042 224.322L237.308 225.754C235.344 225.959 233.58 224.48 233.382 222.449C233.183 220.418 234.617 218.604 236.586 218.399L255.172 216.46C256.307 216.341 257.428 216.788 258.193 217.66C258.957 218.532 259.273 219.728 259.046 220.879L255.492 238.787C255.141 240.54 253.647 241.745 251.982 241.745Z" fill="#F37168"/>
<path d="M636.766 185.607C643.19 172.352 659.997 166.341 664.767 181.106C669.537 195.872 671.191 196.809 677.906 202.985C701.207 224.416 665.771 237.264 653.301 242.893C640.831 248.525 635.841 224.662 634.89 205.699C634.147 190.881 634.885 189.486 636.766 185.607Z" fill="#303C60"/>
<path d="M655.724 385.571C656.981 390.84 654.501 395.018 651.177 398.064C648.474 400.541 640.169 401.593 640.571 402.831C640.972 404.068 650.777 404.462 654.08 403.945C657.383 403.43 658.284 401.778 662.394 401.778C665.088 401.781 665.589 399.521 664.387 396.726C663.188 393.933 662.767 392.388 663.852 389.884C664.937 387.38 655.724 385.571 655.724 385.571Z" fill="#4476BD"/>
<path d="M704.727 385.571C704.527 391.04 703.912 395.116 705.212 397.65C710.236 401.985 714.413 406.907 712.817 407.247C705.212 408.867 702.309 404.166 698.007 402.831C692.726 401.192 698.507 394.347 696.439 385.571C695.29 380.69 704.412 381.861 704.412 381.861L704.727 385.571Z" fill="#4476BD"/>
<path d="M668.837 260.74C665.501 289.638 659.438 310.999 658.762 324.698C658.086 338.397 655.385 392.339 655.385 392.339C655.385 392.339 662.815 391.804 663.491 390.643C664.168 389.482 677.45 359.065 676.774 340.258C676.097 321.45 690.04 292.855 690.04 292.855L686.68 264.797L668.837 260.74Z" fill="#F37168"/>
<path d="M672.042 273.32L666.825 275.572C665.405 284.736 663.833 292.975 662.452 300.281C670.756 305.816 675.046 324.262 676.884 335.54C677.82 322.921 683.594 307.675 687.174 299.243L672.042 273.32Z" fill="#D54A41"/>
<path d="M696.136 257.827C696.136 257.827 707.382 272.62 707.029 289.404C706.491 314.955 703.79 322.248 708.491 349.039C710.327 359.502 704.438 393.731 704.438 393.731C704.438 393.731 699.408 394.138 696.707 392.75C696.932 390.236 693.457 349.325 686.687 330.517C683.408 321.41 678.8 295.906 676.324 281.278C673.849 266.65 673.397 263.631 674.298 263.631C675.199 263.631 696.136 257.827 696.136 257.827Z" fill="#F37168"/>
<path d="M595.977 291.561L580.441 293.409C579.392 293.535 578.283 292.768 577.977 291.709C577.671 290.649 578.278 289.678 579.329 289.554L594.866 287.706C595.915 287.58 597.024 288.347 597.329 289.407C597.635 290.466 597.028 291.435 595.977 291.561Z" fill="#85BAFF"/>
<path d="M597.726 297.619L582.19 299.467C581.141 299.593 580.032 298.826 579.726 297.767C579.42 296.707 580.027 295.736 581.079 295.613L596.615 293.764C597.664 293.638 598.773 294.405 599.079 295.465C599.385 296.524 598.775 297.496 597.726 297.619Z" fill="#85BAFF"/>
<path d="M607.797 282.55C603.139 284.071 600.334 284.391 597.038 284.152C593.745 283.913 591.57 285.914 589.63 286.715C587.689 287.516 586.912 288.776 590.172 288.317C593.432 287.859 595.007 287.859 595.007 287.859C595.007 287.859 597.358 288.398 598.446 289.199C598.969 289.584 599.358 289.944 600.159 290.737C601.127 291.699 601.077 293.545 600.255 294.641C599.366 295.829 598.787 297.141 597.87 297.606C596.147 298.481 597.769 299.534 599.485 298.481C601.115 297.481 602.047 296.061 603.29 294.639C605.068 292.603 606.705 289.318 608.335 287.856C609.972 286.392 607.797 282.55 607.797 282.55Z" fill="#F09959"/>
<path d="M654.324 225.298C646.77 241.316 639.629 258.45 630.156 266.458C620.685 274.463 605.562 283.011 605.562 283.011C605.562 283.011 607.644 289.034 608.576 289.195C609.508 289.355 632.022 281.14 638.542 276.681C645.061 272.223 658.843 257.142 658.843 257.142L654.324 225.298Z" fill="#A2DFF2"/>
<path d="M653.605 262.818C659.808 257.055 665.907 247.564 665.716 246.563C665.46 245.222 656.305 220.457 656.305 220.457C654.324 225.263 652.61 229.508 651.131 233.215C652.051 244.439 656.126 255.512 653.605 262.818Z" fill="#96CFE0"/>
<path d="M667.609 203.966C667.609 203.966 684.414 206.024 692.078 217.889C699.742 229.754 696.184 249.262 698.06 258.268C699.936 267.274 674.489 278.456 671.272 269.265C668.187 260.456 655.134 244.18 653.834 239.278C650.782 227.78 661.83 208.191 661.83 208.191L667.609 203.966Z" fill="#A2DFF2"/>
<path d="M657.569 188.638L670.479 205.79C670.479 205.79 665.773 213.411 658.982 230.055C656.506 221.584 660.086 210.01 660.086 210.01L649.042 193.385L657.569 188.638Z" fill="#F09959"/>
<path d="M663.589 196.639L657.567 188.638L649.04 193.388L660.083 210.012C660.083 210.012 659.892 210.922 659.634 212.336C662.824 207.38 664.043 202.239 663.589 196.639Z" fill="#E38540"/>
<path d="M655.739 194.275C656.255 201.07 651.067 206.85 646.084 207.254C641.101 207.658 638.209 202.532 637.693 195.734C637.177 188.939 640.798 183.103 645.78 182.699C650.763 182.297 655.22 187.48 655.739 194.275Z" fill="#F09959"/>
<path d="M667.685 253.048C669.788 266.791 661.981 296.197 661.981 296.197C661.981 296.197 666.639 297.289 680.597 295.894C694.556 294.501 700.71 280.132 702.813 279.73C704.914 279.329 705.994 293.101 707.031 294.19C708.068 295.28 708.226 276.797 705.516 269.534C700.712 256.656 701.654 251.192 703.449 243.389C706.639 229.515 667.685 253.048 667.685 253.048Z" fill="#A2DFF2"/>
<path d="M706.649 274.017C706.345 272.302 705.97 270.759 705.514 269.534C700.71 256.656 701.652 251.192 703.446 243.389C703.587 242.773 692.296 224.063 692.296 224.063L677.62 207.796C663.537 231.378 680.545 242.541 679.223 251.672C677.902 260.806 671.086 267.752 671.086 267.752L671.566 270.993C672.226 275.439 676.222 278.525 680.54 277.906C686.625 277.036 694.604 275.286 698.155 271.888C701.594 268.602 704.639 271.148 706.649 274.017Z" fill="#96CFE0"/>
<path d="M672.035 269.985C672.035 269.985 665.912 272.955 665.212 273.502C664.512 274.049 664.445 276.314 664.445 276.314C664.445 276.314 661.305 280.248 662.903 281.17C664.502 282.091 667.501 284.608 670.603 282.656C672.508 281.458 672.826 273.445 674.157 273.15C675.486 272.856 672.035 269.985 672.035 269.985Z" fill="#F09959"/>
<path d="M680.411 206.65C687.322 205.657 695.641 217.349 699.625 228.053C703.606 238.76 708.467 254.117 708.467 254.117C708.467 254.117 698.586 265.374 687.764 270.039C678.327 274.111 673.461 275.905 673.461 275.905L670.524 270.468L691.705 252.148C691.705 252.148 680.32 236.857 677.393 224.337C674.465 211.816 675.158 207.404 680.411 206.65Z" fill="#A2DFF2"/>
<path d="M636.465 188.353C641.075 200.351 654.491 194.305 657.995 192.153C661.498 190.001 662.373 219.457 670.078 218.308C675.734 217.463 672.764 210.251 678.306 207.276C682.387 205.085 685.602 208.122 685.602 208.122C685.602 208.122 684.323 205.726 681.704 204.624C679.085 203.525 668.703 196.318 664.519 188.769C660.337 181.22 649.289 179.443 646.502 180.298C643.716 181.153 638.155 186.844 638.155 186.844L636.465 188.353Z" fill="#303C60"/>
<path d="M669.795 221.51C664.677 221.51 662.444 211.136 659.873 199.19C659.362 196.809 658.831 194.347 658.277 191.978C658.2 191.655 658.394 191.332 658.707 191.254C659.02 191.175 659.333 191.374 659.409 191.695C659.966 194.073 660.499 196.54 661.013 198.928C663.338 209.736 665.742 220.901 670.202 220.277C672.897 219.895 673.418 213.847 673.007 208.314C672.984 207.984 673.222 207.695 673.543 207.668C673.865 207.641 674.143 207.89 674.169 208.22C674.451 212.001 674.642 220.859 670.362 221.465C670.166 221.495 669.977 221.51 669.795 221.51Z" fill="#303C60"/>
<path d="M670.003 224.667C669.511 224.667 669.019 224.539 668.529 224.285C661.959 220.871 657.603 193.415 657.421 192.247C657.371 191.919 657.586 191.611 657.904 191.559C658.224 191.505 658.52 191.729 658.571 192.057C659.787 199.84 664.038 220.608 669.055 223.213C669.702 223.551 670.328 223.546 670.966 223.205C673.175 222.027 673.383 218.168 673.567 214.764C673.753 211.323 673.93 208.075 676.105 207.353C676.41 207.252 676.738 207.424 676.838 207.74C676.936 208.055 676.769 208.393 676.463 208.496C675.048 208.965 674.895 211.814 674.73 214.831C674.53 218.557 674.3 222.779 671.502 224.273C671.005 224.536 670.505 224.667 670.003 224.667Z" fill="#303C60"/>
<path d="M659.321 194.292C658.802 195.941 657.445 196.962 656.288 196.577C655.132 196.193 654.613 194.541 655.132 192.895C655.65 191.246 657.008 190.226 658.164 190.613C659.321 191 659.837 192.646 659.321 194.292Z" fill="#F09959"/>
<path d="M278.602 379.197C278.602 379.197 234.178 347.373 215.387 365.723C200.381 380.375 227.015 397.586 261.089 392.957C285.073 389.699 287.79 394.431 291.992 394.33C323.25 391.86 365.371 382.214 344.873 367.061C316.948 346.417 298.062 368.303 288.333 373.75C278.602 379.197 278.602 379.197 278.602 379.197Z" fill="#232E4F"/>
<path d="M336.038 366.294C324.362 363.81 279.883 380.821 279.883 380.821C279.883 380.821 241.149 368.779 231.881 367.633C222.613 366.487 218.352 370.117 218.352 370.117C218.352 370.117 222.726 365.035 227.804 364.574C232.885 364.113 240.221 362.854 240.221 362.854C240.221 362.854 314.355 359.223 324.178 361.515C334 363.81 336.038 366.294 336.038 366.294Z" fill="#1B243D"/>
<path d="M273.041 304.37C271.279 304.655 243.895 316.976 243.56 322.135C243.225 327.293 251.062 369.161 266.222 374.61C281.381 380.057 298.339 374.61 298.339 374.61C298.339 374.61 316.131 329.312 310.847 320.71C305.566 312.109 281.658 304.37 281.658 304.37H273.041Z" fill="#FFD24F"/>
<path d="M252.914 314.12C226.753 328.578 220.326 354.681 227.247 360.433C232.096 364.466 250.376 373.383 266.222 372.809C282.069 372.234 296.948 373.775 296.948 373.775C296.948 373.775 324.13 368.071 329.552 359.669C334.972 351.267 319.933 323.978 306.448 316.089C292.96 308.202 252.914 314.12 252.914 314.12Z" fill="#FFD24F"/>
<path d="M277.861 320.71C274.243 320.71 271.282 317.657 271.282 313.925V291.085C271.282 287.353 274.243 284.3 277.861 284.3C281.479 284.3 284.44 287.353 284.44 291.085V313.925C284.44 317.657 281.479 320.71 277.861 320.71Z" fill="#F09959"/>
<path d="M277.861 284.3C274.243 284.3 271.282 287.353 271.282 291.085V309.76C275.16 313.102 278.917 311.352 284.44 306.935V291.083C284.44 287.353 281.479 284.3 277.861 284.3Z" fill="#E38540"/>
<path d="M292.3 292.009C291.22 294.287 289.463 295.548 288.378 294.829C287.293 294.109 287.291 291.681 288.371 289.404C289.451 287.127 291.208 285.865 292.293 286.584C293.378 287.304 293.383 289.732 292.3 292.009Z" fill="#F09959"/>
<path d="M266.844 289.574C268.094 291.644 268.335 294.149 267.379 295.164C266.426 296.179 264.638 295.324 263.388 293.254C262.138 291.184 261.897 288.679 262.853 287.664C263.809 286.649 265.594 287.504 266.844 289.574Z" fill="#F09959"/>
<path d="M289.47 291.861C289.47 300.16 284.404 306.888 278.155 306.888C271.905 306.888 266.839 300.16 266.839 291.861C266.839 283.563 271.905 276.834 278.155 276.834C284.404 276.834 289.47 283.563 289.47 291.861Z" fill="#F09959"/>
<path d="M302.827 329.053C310.24 333.13 316.7 348.583 316.7 348.583C316.7 348.583 300.019 351.26 296.561 353.934C293.101 356.611 297.056 352.914 299.032 345.525C301.011 338.133 302.827 329.053 302.827 329.053Z" fill="#EDC055"/>
<path d="M251.217 327.939C252.947 336.095 261.225 358.863 261.225 358.863C261.225 358.863 253.559 349.858 245.41 349.347C237.263 348.837 234.237 348.709 234.29 350.75C234.299 351.151 235.65 341.702 241.952 335.841C248.251 329.98 251.217 327.939 251.217 327.939Z" fill="#EDC055"/>
<path d="M300.91 379.283H256.147C254.343 379.283 252.804 377.94 252.505 376.104L247.106 342.88C246.729 340.558 248.464 338.444 250.749 338.444H306.307C308.589 338.444 310.326 340.558 309.949 342.88L304.55 376.104C304.251 377.94 302.712 379.283 300.91 379.283Z" fill="#2A66C6"/>
<path d="M300.91 379.283H256.147C254.343 379.283 252.804 377.987 252.505 376.22L247.106 344.196C246.729 341.958 248.464 339.92 250.749 339.92H306.307C308.589 339.92 310.326 341.958 309.949 344.196L304.55 376.22C304.251 377.987 302.712 379.283 300.91 379.283Z" fill="#63ACC2"/>
<path d="M284.44 392.371C284.172 392.324 255.528 384.93 249.135 390.377C242.743 395.824 270.541 395.917 275.545 394.724C280.547 393.531 284.44 392.371 284.44 392.371Z" fill="#1B243D"/>
<path d="M290.833 393.697C290.833 393.697 296.948 388.945 305.009 389.805C313.07 390.665 320.019 392.479 313.07 394.724C306.12 396.972 298.893 397.258 295.557 396.972C292.224 396.684 290.833 393.697 290.833 393.697Z" fill="#1B243D"/>
<path d="M274.544 270.68C267.193 272.98 269.752 294.319 278.155 293.616C286.557 292.914 286.899 283.686 286.302 277.709C285.704 271.732 282.127 268.307 274.544 270.68Z" fill="#0F2D5C"/>
<path d="M271.903 286.499C269.857 284.478 267.047 290.84 268.153 293.635C269.26 296.429 267.711 298.056 269.21 301.065C270.708 304.075 266.447 299.153 265.852 295.55C265.257 291.946 264.915 285.708 264.062 282.896C263.209 280.084 264.105 275.209 267.903 274.196C271.7 273.183 272.584 271.383 274.032 271.295C275.481 271.206 282.382 271.911 285.793 273.843C289.2 275.776 291.076 278.676 290.821 283.071C290.565 287.465 289.456 298.714 288.436 300.56C287.413 302.406 286.885 301.968 287.191 300.913C287.499 299.858 288.605 293.529 287.752 291.244C286.899 288.959 287.327 283.335 285.111 282.896C282.896 282.457 283.408 286.354 280.767 286.645C278.124 286.938 271.903 286.499 271.903 286.499Z" fill="#0F2D5C"/>
</svg>
