<svg width="160" height="160" viewBox="0 0 160 160" fill="none" xmlns="http://www.w3.org/2000/svg">
<path d="M130 142.5H80L91.0287 100.591C91.4504 98.9891 92.3906 97.5717 93.7026 96.5602C95.0146 95.5487 96.6246 95.0001 98.2812 95H132.771C133.919 95 135.051 95.2633 136.081 95.7697C137.11 96.2761 138.01 97.0121 138.711 97.921C139.412 98.8298 139.894 99.8874 140.122 101.012C140.35 102.137 140.316 103.299 140.024 104.409L130 142.5Z" fill="#348ED8"/>
<path d="M122.5 70L130 65L110.055 45.5422L120 32.5L140.743 48.0575C143.617 50.2131 145.95 53.0082 147.557 56.2215C149.164 59.4348 150 62.978 150 66.5706C150 70.6505 148.922 74.6579 146.874 78.1867C144.827 81.7155 141.882 84.6402 138.34 86.6644L132.5 90L122.5 70Z" fill="#FCB079"/>
<path d="M45 62.5L65 55L60 42.5L92.5 37.5L95 22.5H57.0763C53.492 22.4998 49.9865 23.5514 46.9942 25.5245C44.002 27.4976 41.6545 30.3055 40.2428 33.6C38.4758 37.7227 38.2833 42.3505 39.7019 46.6056L45 62.5Z" fill="#FCB079"/>
<path d="M90.32 23.7188L75.6375 35.9734L80.9085 38.1678L75.2619 51.125C74.9664 51.806 74.81 52.5393 74.802 53.2816C74.7939 54.024 74.9343 54.7604 75.215 55.4477C75.4957 56.135 75.9109 56.7592 76.4363 57.2837C76.9617 57.8082 77.5866 58.2224 78.2744 58.5019L83.5456 60.6966L75.6394 78.8353L96.7241 87.6134L119.313 35.7878L90.32 23.7188Z" fill="#FDC8A2"/>
<path d="M121.569 30.6063L111.406 53.9251L109.522 43.9595L100.381 61.1188C99.4727 62.8243 97.9409 64.1133 96.1052 64.717C94.2695 65.3208 92.2717 65.1927 90.5281 64.3595L78.275 58.5001C77.5872 58.221 76.9621 57.8071 76.4366 57.2828C75.911 56.7586 75.4957 56.1344 75.215 55.4472C74.9343 54.76 74.7939 54.0236 74.8021 53.2814C74.8102 52.5391 74.9668 51.806 75.2625 51.1251L77.0469 47.0282L79.3094 41.8438L80.9094 38.1688L94.0875 43.6532L106.356 35.0532C106.745 34.7807 107.059 34.4144 107.268 33.9882C107.477 33.562 107.575 33.0899 107.553 32.6156C107.531 32.1413 107.389 31.6804 107.141 31.2755C106.893 30.8707 106.547 30.5352 106.134 30.3001L90.3188 23.7188C88.7809 23.0887 87.4645 22.0167 86.5361 20.6382C85.6077 19.2598 85.109 17.637 85.1031 15.9751C85.1044 14.8316 85.3416 13.7008 85.8 12.6532C86.7247 10.5788 88.4243 8.94852 90.5355 8.11107C92.6466 7.27362 95.0016 7.29547 97.0969 8.17196L115.544 15.8501C116.92 16.4089 118.17 17.2373 119.221 18.2864C120.272 19.3356 121.103 20.5843 121.664 21.9592C122.226 23.3341 122.506 24.8074 122.49 26.2924C122.474 27.7774 122.16 29.2442 121.569 30.6063Z" fill="#91563A"/>
<path d="M88.8315 35.267L91.0928 30.0831L95.6778 32.0831L93.4165 37.267L88.8315 35.267Z" fill="#91563A"/>
<path d="M45 62.5L65 55L72.5 70L105 80L122.5 70L132.5 90L112.5 105L100 142.5H37.5L52.5 85L45 62.5Z" fill="#D65246"/>
<path d="M88.7813 48.7095C87.5318 49.5951 86.0277 50.0493 84.4969 50.0033C83.2075 49.9923 81.9303 49.7521 80.725 49.2939C79.3577 48.7966 78.1062 48.0257 77.0469 47.0283L79.3094 41.8439C79.55 42.4907 80.2313 43.7001 82.4656 44.6095C84.1781 45.3033 85.45 44.9626 85.7531 44.7283L88.7813 48.7095Z" fill="#FDC8A2"/>
<path d="M7.5 142.5H152.5V152.5H7.5V142.5Z" fill="#91563A"/>
<path d="M17.5 132.5H92.5V142.5H17.5V132.5Z" fill="#CECECC"/>
<path d="M63.6875 142.5H21.3412C20.2396 142.5 19.1688 142.136 18.2952 141.465C17.4217 140.794 16.7942 139.853 16.5103 138.788L7.64938 105.56C7.55026 105.188 7.50004 104.805 7.5 104.421C7.5 103.84 7.61434 103.265 7.8365 102.729C8.05866 102.193 8.38428 101.705 8.79477 101.295C9.20526 100.884 9.69259 100.559 10.2289 100.337C10.7653 100.114 11.3401 100 11.9206 100H56.04C57.1668 100 58.2605 100.381 59.1438 101.081C60.0271 101.78 60.6481 102.758 60.9062 103.855L68.5534 136.355C68.7261 137.089 68.7306 137.852 68.5666 138.588C68.4026 139.324 68.0743 140.013 67.6063 140.604C67.1383 141.195 66.5427 141.672 65.8641 142.001C65.1855 142.329 64.4414 142.5 63.6875 142.5Z" fill="#DFDFDD"/>
<path d="M41.3037 126.05C43.1295 124.14 42.9183 120.974 40.8318 118.98C38.7453 116.986 35.5737 116.918 33.7479 118.829C31.922 120.739 32.1333 123.904 34.2198 125.899C36.3062 127.893 39.4778 127.961 41.3037 126.05Z" fill="#F1F1F1"/>
<path d="M120 110H142.5V142.5H120V110Z" fill="#D65246"/>
<path d="M148.866 115H142.5V120H148.866C149.166 120 149.455 120.12 149.667 120.333C149.88 120.545 150 120.834 150 121.134V131.366C150 131.666 149.88 131.955 149.667 132.167C149.455 132.38 149.166 132.5 148.866 132.5H142.5V137.5H148.866C150.492 137.498 152.051 136.851 153.201 135.701C154.351 134.551 154.998 132.992 155 131.366V121.134C154.998 119.508 154.351 117.949 153.201 116.799C152.051 115.649 150.492 115.002 148.866 115Z" fill="#C7483C"/>
</svg>
