<svg width="438" height="848" viewBox="0 0 438 848" fill="none" xmlns="http://www.w3.org/2000/svg">
<g clip-path="url(#clip0)">
<path d="M195.047 730.355L219.382 827.694C221.961 838.008 214.16 847.998 203.53 847.998C198.212 847.998 193.227 845.41 190.166 841.062L138.695 767.929L195.047 730.355Z" fill="#707487"/>
<path d="M195.047 730.355L138.695 767.93L162.618 801.918C178.019 795.101 192.882 787.292 207.086 778.507L195.047 730.355Z" fill="#5B5D6E"/>
<path d="M28.7049 83.3076H-0.706665V142.129H28.7049V83.3076Z" fill="#C89650"/>
<path d="M13.9991 745.078C168.311 745.078 293.405 619.983 293.405 465.672C293.405 311.361 168.311 186.266 13.9991 186.266C-140.312 186.266 -265.406 311.361 -265.406 465.672C-265.406 619.983 -140.312 745.078 13.9991 745.078Z" fill="#FFEAE0"/>
<path d="M13.9992 568.611C70.8509 568.611 116.938 522.524 116.938 465.672C116.938 408.82 70.8509 362.733 13.9992 362.733C-42.8525 362.733 -88.9398 408.82 -88.9398 465.672C-88.9398 522.524 -42.8525 568.611 13.9992 568.611Z" fill="#FFE0CC"/>
<path d="M224.957 208.069L250.921 170.989L192.557 130.123L166.593 167.203L224.957 208.069Z" fill="#C89650"/>
<path d="M43.4108 98.015H-15.4108C-23.5313 98.015 -30.1166 91.4298 -30.1166 83.3092V68.6034C-30.1166 60.4828 -23.5313 53.8976 -15.4108 53.8976H43.4108C51.5314 53.8976 58.1166 60.4828 58.1166 68.6034V83.3092C58.1166 91.4331 51.5331 98.015 43.4108 98.015Z" fill="#FFC855"/>
<path d="M14.0008 127.437C-172.797 127.437 -324.228 278.867 -324.228 465.665C-324.228 652.464 -172.797 803.894 14.0008 803.894C200.799 803.894 352.23 652.464 352.23 465.665C352.23 278.867 200.797 127.437 14.0008 127.437ZM14.0008 745.069C-140.31 745.069 -265.405 619.975 -265.405 465.664C-265.405 311.351 -140.31 186.258 14.0008 186.258C168.312 186.258 293.406 311.351 293.406 465.664C293.406 619.976 168.312 745.069 14.0008 745.069Z" fill="#4476BD"/>
<path d="M14.0009 259.786C5.8803 259.786 -0.704956 253.2 -0.704956 245.08V200.962C-0.704956 192.842 5.87864 186.257 14.0009 186.257C22.1214 186.257 28.7067 192.842 28.7067 200.962V245.08C28.7067 253.202 22.1214 259.786 14.0009 259.786Z" fill="#5B5D6E"/>
<path d="M14.0009 745.069C5.8803 745.069 -0.704956 738.486 -0.704956 730.363V686.246C-0.704956 678.125 5.87864 671.54 14.0009 671.54C22.1214 671.54 28.7067 678.125 28.7067 686.246V730.363C28.7067 738.486 22.1214 745.069 14.0009 745.069Z" fill="#5B5D6E"/>
<path d="M278.701 480.37H234.583C226.462 480.37 219.877 473.786 219.877 465.664C219.877 457.541 226.462 450.958 234.583 450.958H278.701C286.821 450.958 293.406 457.541 293.406 465.664C293.406 473.786 286.821 480.37 278.701 480.37Z" fill="#5B5D6E"/>
<path d="M243.222 612.72C240.731 612.72 238.204 612.087 235.883 610.753L197.677 588.695C190.64 584.63 188.235 575.64 192.291 568.603C196.355 561.565 205.316 559.152 212.383 563.217L250.589 585.275C257.626 589.339 260.031 598.329 255.975 605.366C253.246 610.085 248.307 612.72 243.222 612.72Z" fill="#959CB3"/>
<path d="M124.277 289.343C121.786 289.343 119.259 288.71 116.938 287.375C109.901 283.311 107.496 274.321 111.552 267.283L133.61 229.077C137.674 222.04 146.635 219.613 153.702 223.691C160.739 227.755 163.144 236.746 159.088 243.783L137.03 281.989C134.301 286.706 129.362 289.343 124.277 289.343Z" fill="#959CB3"/>
<path d="M205.042 370.078C199.958 370.078 195.019 367.442 192.289 362.726C188.233 355.689 190.638 346.699 197.675 342.634L235.882 320.577C242.926 316.497 251.909 318.932 255.974 325.963C260.03 333 257.625 341.99 250.587 346.055L212.381 368.112C210.062 369.447 207.535 370.078 205.042 370.078Z" fill="#959CB3"/>
<path d="M146.365 709.606C141.28 709.606 136.341 706.969 133.612 702.254L111.554 664.047C107.498 657.01 109.902 648.02 116.94 643.955C123.977 639.884 132.959 642.297 137.032 649.341L159.09 687.548C163.146 694.585 160.741 703.575 153.704 707.64C151.383 708.975 148.856 709.606 146.365 709.606Z" fill="#959CB3"/>
<path d="M-55.3346 600.443C-57.8256 600.443 -60.353 599.81 -62.6734 598.475C-69.7108 594.41 -72.1157 585.42 -68.0595 578.383L-14.1636 485.03C-10.1075 477.993 -1.14554 475.58 5.92828 479.644C12.9657 483.709 15.3705 492.699 11.3144 499.736L-42.5815 593.089C-45.311 597.806 -50.2499 600.443 -55.3346 600.443Z" fill="#464655"/>
<path d="M14.0008 450.958C5.88024 450.958 -0.705017 444.374 -0.705017 436.252V303.901C-0.705017 295.781 5.87859 289.196 14.0008 289.196C22.1214 289.196 28.7066 295.781 28.7066 303.901V436.252C28.7066 444.374 22.1214 450.958 14.0008 450.958Z" fill="#464655"/>
<path d="M14.0009 186.258C-140.31 186.258 -265.405 311.351 -265.405 465.664C-265.405 619.975 -140.31 745.069 14.0009 745.069C168.312 745.069 293.406 619.975 293.406 465.664C293.406 311.353 168.312 186.258 14.0009 186.258ZM14.0009 715.659C-124.066 715.659 -235.993 603.732 -235.993 465.665C-235.993 327.597 -124.066 215.671 14.0009 215.671C152.067 215.671 263.995 327.597 263.995 465.665C263.995 603.733 152.067 715.659 14.0009 715.659Z" fill="#FFD6B3"/>
<path d="M13.9992 502.436C34.3032 502.436 50.7629 485.976 50.7629 465.672C50.7629 445.368 34.3032 428.908 13.9992 428.908C-6.30485 428.908 -22.7645 445.368 -22.7645 465.672C-22.7645 485.976 -6.30485 502.436 13.9992 502.436Z" fill="#FFC855"/>
<path d="M311.178 26.543C244.744 -19.9644 152.877 -3.74973 106.363 62.6542C104.13 65.8491 103.254 69.8058 103.93 73.6467C104.604 77.4809 106.78 80.8977 109.975 83.1386L326.803 234.97C329.294 236.707 332.245 237.627 335.24 237.627C336.088 237.627 336.942 237.555 337.797 237.405C341.64 236.731 345.048 234.554 347.289 231.359C393.795 164.939 377.595 73.0571 311.178 26.543Z" fill="#FFC855"/>
<path d="M163.712 114.215C206.144 53.6409 286.26 35.0048 350.436 67.4689C340.409 51.8389 327.306 37.8353 311.178 26.5397C244.744 -19.9677 152.879 -3.75306 106.363 62.6508C104.13 65.8457 103.254 69.8025 103.93 73.6433C104.604 77.4776 106.78 80.8944 109.975 83.1353L161.513 119.223C161.938 117.451 162.647 115.74 163.712 114.215Z" fill="#FFB44B"/>
</g>
<defs>
<clipPath id="clip0">
<rect width="848" height="848" fill="white" transform="translate(-410)"/>
</clipPath>
</defs>
</svg>
