<svg width="300" height="300" viewBox="0 0 300 300" fill="none" xmlns="http://www.w3.org/2000/svg">
<path d="M235.082 64.9176C209.072 38.9078 174.49 24.584 137.708 24.584C100.925 24.584 66.3434 38.9078 40.3336 64.9176C14.3238 90.9273 0 125.509 0 162.292C0 199.075 14.3238 233.656 40.3336 259.666C66.3434 285.676 100.925 300 137.708 300C174.49 300 209.072 285.676 235.082 259.666C261.091 233.656 275.415 199.075 275.415 162.292C275.415 125.509 261.091 90.9273 235.082 64.9176Z" fill="#E62E6B"/>
<path d="M235.082 259.667C261.091 233.657 275.415 199.075 275.415 162.293C275.415 125.51 261.091 90.9277 235.082 64.918C209.072 38.9082 174.49 24.585 137.708 24.585V300C174.49 300 209.072 285.676 235.082 259.667Z" fill="#B32453"/>
<path d="M201.349 225.963C236.515 190.797 236.515 133.782 201.349 98.6161C166.183 63.4502 109.168 63.4502 74.0019 98.6161C38.836 133.782 38.836 190.797 74.0019 225.963C109.168 261.129 166.183 261.129 201.349 225.963Z" fill="#FFEA80"/>
<path d="M227.77 162.293C227.77 112.633 187.368 72.2305 137.708 72.2305V252.354C187.368 252.354 227.77 211.953 227.77 162.293Z" fill="#FFCC66"/>
<path d="M169.479 194.093C187.043 176.528 187.043 148.051 169.479 130.486C151.914 112.922 123.437 112.922 105.872 130.486C88.3074 148.051 88.3074 176.528 105.872 194.093C123.437 211.657 151.914 211.657 169.479 194.093Z" fill="#E62E6B"/>
<path d="M182.691 162.292C182.691 137.488 162.512 117.309 137.708 117.309V207.275C162.512 207.275 182.691 187.096 182.691 162.292Z" fill="#B32453"/>
<path d="M291.211 36.8666H275.563L285.359 27.0703C288.792 23.6379 288.792 18.0732 285.359 14.6408C281.927 11.2084 276.362 11.2084 272.93 14.6408L263.133 24.4371V8.78906C263.133 3.93516 259.198 0 254.344 0C249.49 0 245.555 3.93516 245.555 8.78906V42.0152L131.493 156.078C128.061 159.51 128.061 165.075 131.493 168.507C133.209 170.224 135.459 171.082 137.708 171.082C139.956 171.082 142.206 170.224 143.922 168.507L257.985 54.4447H291.211C296.065 54.4447 300 50.5096 300 45.6557C300 40.8018 296.065 36.8666 291.211 36.8666Z" fill="#43789C"/>
<path d="M291.211 36.8666H275.563L285.359 27.0703C288.792 23.6379 288.792 18.0732 285.359 14.6408C281.927 11.2084 276.362 11.2084 272.93 14.6408L263.133 24.4371V8.78906C263.133 3.93516 259.198 0 254.344 0C249.49 0 245.555 3.93516 245.555 8.78906V42.0152L137.708 149.863V171.081C139.957 171.081 142.206 170.224 143.922 168.507L257.985 54.4447H291.211C296.065 54.4447 300 50.5096 300 45.6557C300 40.8018 296.065 36.8666 291.211 36.8666Z" fill="#2A495E"/>
</svg>
