<svg width="300" height="300" viewBox="0 0 300 300" fill="none" xmlns="http://www.w3.org/2000/svg">
<g clip-path="url(#clip0)">
<path d="M39 109H19C13.4772 109 9 113.477 9 119V159C9 164.523 13.4772 169 19 169H39C44.5228 169 49 164.523 49 159V119C49 113.477 44.5228 109 39 109Z" fill="#C7E2FB"/>
<path d="M19 169H39C41.6522 169 44.1957 167.946 46.0711 166.071C47.9464 164.196 49 161.652 49 159V149H9V159C9 161.652 10.0536 164.196 11.9289 166.071C13.8043 167.946 16.3478 169 19 169Z" fill="#A0A8B2"/>
<path d="M109 189V149C109 141.044 112.161 133.413 117.787 127.787C123.413 122.161 131.044 119 139 119H179C186.956 119 194.587 122.161 200.213 127.787C205.839 133.413 209 141.044 209 149V189H109Z" fill="#4472B0"/>
<path d="M144 119V124C144 127.978 145.58 131.794 148.393 134.607C151.206 137.42 155.022 139 159 139C162.978 139 166.794 137.42 169.607 134.607C172.42 131.794 174 127.978 174 124V119H144Z" fill="#FDDFB1"/>
<path d="M184 74V94C184 97.283 183.353 100.534 182.097 103.567C180.841 106.6 178.999 109.356 176.678 111.678C174.356 113.999 171.6 115.841 168.567 117.097C165.534 118.353 162.283 119 159 119C152.37 119 146.011 116.366 141.322 111.678C136.634 106.989 134 100.63 134 94V74H142.8C146.164 74.0083 149.463 73.0764 152.326 71.3095C155.188 69.5425 157.5 67.0108 159 64C160.5 67.0108 162.812 69.5425 165.674 71.3095C168.537 73.0764 171.836 74.0083 175.2 74H184Z" fill="#FDDFB1"/>
<path d="M134 94V79H124C121.348 79 118.804 80.0536 116.929 81.9289C115.054 83.8043 114 86.3478 114 89C114 91.6522 115.054 94.1957 116.929 96.0711C118.804 97.9464 121.348 99 124 99H134.5C134.18 97.3522 134.013 95.6785 134 94Z" fill="#FDDFB1"/>
<path d="M194 79H184V94C183.987 95.6785 183.82 97.3522 183.5 99H194C196.652 99 199.196 97.9464 201.071 96.0711C202.946 94.1957 204 91.6522 204 89C204 86.3478 202.946 83.8043 201.071 81.9289C199.196 80.0536 196.652 79 194 79Z" fill="#FDDFB1"/>
<path d="M159 29C149.717 29 140.815 32.6875 134.251 39.2513C127.687 45.815 124 54.7174 124 64V79H134V74H142.8C146.164 74.0083 149.463 73.0764 152.326 71.3095C155.188 69.5425 157.5 67.0108 159 64C160.5 67.0108 162.812 69.5425 165.674 71.3095C168.537 73.0764 171.836 74.0083 175.2 74H184V79H194V64C194 54.7174 190.313 45.815 183.749 39.2513C177.185 32.6875 168.283 29 159 29Z" fill="#CDA57D"/>
<path d="M39 209H279V299H39V209Z" fill="#C18E5C"/>
<path d="M9 189H309V209H9V189Z" fill="#CDA57D"/>
<path d="M279 209H299V309H279V209Z" fill="#CDA57D"/>
<path d="M19 209H39V309H19V209Z" fill="#CDA57D"/>
<path d="M184 144H194V189H184V144Z" fill="#698EC0"/>
<path d="M124 144H134V189H124V144Z" fill="#698EC0"/>
<path d="M249 9H309V49H249V9Z" fill="#F7D881"/>
<path d="M249 9L279 29L309 9H249Z" fill="#F2C351"/>
<path d="M9 49H89V59C89 61.6522 87.9464 64.1957 86.0711 66.0711C84.1957 67.9464 81.6522 69 79 69H19C16.3478 69 13.8043 67.9464 11.9289 66.0711C10.0536 64.1957 9 61.6522 9 59V49Z" fill="#88929F"/>
<path d="M19 49V19C19 16.3478 20.0536 13.8043 21.9289 11.9289C23.8043 10.0536 26.3478 9 29 9H69C71.6522 9 74.1957 10.0536 76.0711 11.9289C77.9464 13.8043 79 16.3478 79 19V49H19Z" fill="#C1C8D1"/>
<path d="M259 109H309V169H259V109Z" fill="#C7E2FB"/>
<path d="M274 124H294V134H274V124Z" fill="white"/>
<path d="M274 144H294V154H274V144Z" fill="white"/>
<path d="M207.55 47.5501L200.45 40.4501L220.45 20.4501C220.917 19.9867 221.471 19.6201 222.08 19.3712C222.69 19.1224 223.342 18.9963 224 19.0001H249V29.0001H226.05L207.55 47.5501Z" fill="#C1C8D1"/>
<path d="M110.45 47.5501L91.95 29.0001H79V19.0001H94C94.658 18.9963 95.3103 19.1224 95.9195 19.3712C96.5287 19.6201 97.0828 19.9867 97.55 20.4501L117.55 40.4501L110.45 47.5501Z" fill="#C1C8D1"/>
<path d="M84 139H49V129H81.95L105.45 105.45L112.55 112.55L87.55 137.55C87.0828 138.014 86.5287 138.38 85.9195 138.629C85.3103 138.878 84.658 139.004 84 139Z" fill="#C1C8D1"/>
<path d="M259 139H239C238.342 139.004 237.69 138.878 237.08 138.629C236.471 138.38 235.917 138.014 235.45 137.55L210.45 112.55L217.55 105.45L241.05 129H259V139Z" fill="#C1C8D1"/>
</g>
<defs>
<clipPath id="clip0">
<rect width="300" height="300" fill="white"/>
</clipPath>
</defs>
</svg>
