<svg width="160" height="160" viewBox="0 0 160 160" fill="none" xmlns="http://www.w3.org/2000/svg">
<g clip-path="url(#clip0)">
<path d="M85 77.4433C78.7133 83.9733 80 90.91 80 111.983C80 129.483 76.9467 147.027 92.9267 151.157C97.9167 152.44 142.13 152.44 147.113 151.15C153.767 149.433 159.18 144.037 159.92 134.627C160.023 133.313 160.023 90.6767 159.917 89.3367C159.13 79.3133 152.96 73.5367 144.83 72.3667C142.967 72.0967 142.593 72.0167 133.033 72C99.1233 72.0167 91.69 70.5067 85 77.4433Z" fill="url(#paint0_linear)"/>
<path d="M119.993 82.4633C107.89 82.4633 96.3967 81.3867 92.0067 92.6533C90.1933 97.3067 90.4567 103.35 90.4567 112.003C90.4567 119.597 90.2133 126.733 92.0067 131.35C96.3867 142.623 107.973 141.543 119.987 141.543C131.577 141.543 143.527 142.75 147.97 131.35C149.787 126.65 149.52 120.697 149.52 112.003C149.52 100.463 150.157 93.0133 144.56 87.42C138.893 81.7533 131.23 82.4633 119.98 82.4633H119.993ZM117.347 87.7867C142.593 87.7467 145.807 84.94 144.033 123.93C143.403 137.72 132.903 136.207 119.997 136.207C96.4633 136.207 95.7867 135.533 95.7867 111.99C95.7867 88.1733 97.6533 87.8 117.347 87.78V87.7867ZM135.76 92.69C133.803 92.69 132.217 94.2767 132.217 96.2333C132.217 98.19 133.803 99.7767 135.76 99.7767C137.717 99.7767 139.303 98.19 139.303 96.2333C139.303 94.2767 137.717 92.69 135.76 92.69ZM119.993 96.8333C111.617 96.8333 104.827 103.627 104.827 112.003C104.827 120.38 111.617 127.17 119.993 127.17C128.37 127.17 135.157 120.38 135.157 112.003C135.157 103.627 128.37 96.8333 119.993 96.8333ZM119.993 102.157C133.01 102.157 133.027 121.85 119.993 121.85C106.98 121.85 106.96 102.157 119.993 102.157Z" fill="white"/>
</g>
<g clip-path="url(#clip1)">
<path d="M118.001 82.9993C140.092 82.9993 158 65.0908 158 42.9996C158 20.9085 140.092 3 118.001 3C95.9095 3 78.001 20.9085 78.001 42.9996C78.001 65.0908 95.9095 82.9993 118.001 82.9993Z" fill="#55ACEE"/>
<path d="M142.502 31.7466C140.787 32.5067 138.944 33.0208 137.01 33.2504C138.984 32.0675 140.499 30.1958 141.215 27.9618C139.367 29.0578 137.32 29.8528 135.143 30.2813C133.399 28.4239 130.914 27.2631 128.162 27.2631C122.883 27.2631 118.601 31.5448 118.601 36.8241C118.601 37.5735 118.686 38.3029 118.85 39.0031C110.904 38.6045 103.859 34.7984 99.1428 29.0121C98.32 30.4239 97.848 32.0675 97.848 33.8194C97.848 37.1357 99.5371 40.0634 102.101 41.7775C100.535 41.7283 99.0594 41.2984 97.771 40.5804C97.7702 40.621 97.7702 40.6616 97.7702 40.7016C97.7702 45.3341 101.067 49.1981 105.44 50.0758C104.639 50.2954 103.793 50.4116 102.922 50.4116C102.304 50.4116 101.706 50.3524 101.123 50.2412C102.339 54.0388 105.87 56.8032 110.054 56.881C106.782 59.4457 102.659 60.9738 98.1788 60.9738C97.4087 60.9738 96.6458 60.9288 95.8992 60.8397C100.128 63.5535 105.155 65.1357 110.554 65.1357C128.14 65.1357 137.758 50.5671 137.758 37.9314C137.758 37.5172 137.748 37.1043 137.73 36.695C139.6 35.3474 141.22 33.6639 142.502 31.7466Z" fill="#F1F2F2"/>
</g>
<path d="M75.625 94.0465L80.3125 119.883L75.625 143.625H14.375L9.6875 120.404L14.375 94.0465C12.8244 92.831 22.8452 92.1176 29.4841 97.3216C37.6577 103.729 43.2786 116.581 45 117.93C45.2659 117.722 46.308 109.556 54.9066 102.816C61.473 97.6688 76.5102 93.3527 75.625 94.0465Z" fill="#FFF5F5"/>
<path d="M75.625 143.625L80.3125 119.883L75.625 94.0465C76.5102 93.3525 61.473 97.6685 54.9066 102.816C46.3078 109.556 45.2661 117.722 45 117.93V143.625H75.625Z" fill="#E3E7EA"/>
<path d="M64.5854 102.71C64.499 102.777 64.3954 102.859 64.2993 102.934C64.237 102.983 64.361 102.886 64.5854 102.71Z" fill="#00A66C"/>
<path d="M14.375 86.1178V143.625H12.0312C8.14047 143.625 5 140.346 5 136.284V87.3414C5 87.1454 5 86.9497 5.04688 86.754L14.375 86.1178Z" fill="#F03800"/>
<path d="M85 87.3413V136.284C85 140.346 81.8595 143.625 77.9688 143.625H75.625V91.012L84.9531 86.754C85 86.9496 85 87.1454 85 87.3413Z" fill="#CD0000"/>
<path d="M84.9531 86.754C38.577 123.084 91.5942 81.429 45 117.93C40.9308 114.743 59.5847 129.478 5.04688 86.754C5.32813 82.9364 8.32829 80 12.0313 80L30.5299 85.9209L45 105.695L55.4614 88.9378L77.9688 80C81.6717 80 84.6719 82.9364 84.9531 86.754Z" fill="#FF641A"/>
<path d="M45 117.93C45.0127 117.94 45.0114 117.939 45 117.93C48.2708 115.368 79.4956 91.0293 84.9531 86.754C84.6719 82.9364 81.6719 80 77.9687 80L55.4614 88.9377L45 105.695V117.93Z" fill="#F03800"/>
<path d="M77.9688 80L45 105.695L12.0312 80H77.9688Z" fill="#FFF5F5"/>
<path d="M77.9688 80H45V105.695L77.9688 80Z" fill="#E3E7EA"/>
<path d="M70 0H10C4.485 0 0 4.485 0 10V70C0 75.515 4.485 80 10 80H70C75.515 80 80 75.515 80 70V10C80 4.485 75.515 0 70 0Z" fill="#1976D2"/>
<path d="M67.5 40H55V30C55 27.24 57.24 27.5 60 27.5H65V15H55C46.715 15 40 21.715 40 30V40H30V52.5H40V80H55V52.5H62.5L67.5 40Z" fill="#FAFAFA"/>
<path d="M82.3517 46.796C81.4295 43.3689 78.7275 40.6675 75.301 39.7446C69.0406 38.0314 43.9992 38.0314 43.9992 38.0314C43.9992 38.0314 18.9584 38.0314 12.6981 39.6793C9.3375 40.6016 6.56957 43.3695 5.64733 46.796C4 53.0557 4 66.0378 4 66.0378C4 66.0378 4 79.0853 5.64733 85.2797C6.57018 88.7062 9.27158 91.4082 12.6987 92.3311C19.0244 94.0443 43.9998 94.0443 43.9998 94.0443C43.9998 94.0443 69.0406 94.0443 75.301 92.3964C78.7281 91.4741 81.4295 88.7721 82.3523 85.3456C83.9997 79.0853 83.9997 66.1038 83.9997 66.1038C83.9997 66.1038 84.0656 53.0557 82.3517 46.796Z" fill="#FF0000"/>
<path d="M36.0262 78.0312L56.8496 66.0378L36.0262 54.0444V78.0312Z" fill="white"/>
<path d="M110.01 64H109.99C87.935 64 70 81.94 70 104C70 112.75 72.82 120.86 77.615 127.445L72.63 142.305L88.005 137.39C94.33 141.58 101.875 144 110.01 144C132.065 144 150 126.055 150 104C150 81.945 132.065 64 110.01 64Z" fill="#4CAF50"/>
<path d="M133.285 120.485C132.32 123.21 128.49 125.47 125.435 126.13C123.345 126.575 120.615 126.93 111.425 123.12C99.67 118.25 92.1 106.305 91.51 105.53C90.945 104.755 86.76 99.205 86.76 93.465C86.76 87.725 89.675 84.93 90.85 83.73C91.815 82.745 93.41 82.295 94.94 82.295C95.435 82.295 95.88 82.32 96.28 82.34C97.455 82.39 98.045 82.46 98.82 84.315C99.785 86.64 102.135 92.38 102.415 92.97C102.7 93.56 102.985 94.36 102.585 95.135C102.21 95.935 101.88 96.29 101.29 96.97C100.7 97.65 100.14 98.17 99.55 98.9C99.01 99.535 98.4 100.215 99.08 101.39C99.76 102.54 102.11 106.375 105.57 109.455C110.035 113.43 113.655 114.7 114.95 115.24C115.915 115.64 117.065 115.545 117.77 114.795C118.665 113.83 119.77 112.23 120.895 110.655C121.695 109.525 122.705 109.385 123.765 109.785C124.845 110.16 130.56 112.985 131.735 113.57C132.91 114.16 133.685 114.44 133.97 114.935C134.25 115.43 134.25 117.755 133.285 120.485Z" fill="#FAFAFA"/>
<path d="M66.453 76.4688C60.1093 76.4688 54.9843 81.5938 55.078 87.875C55.1405 91.9063 57.3593 95.4063 60.6249 97.3594C59.5155 95.6563 58.8593 93.6406 58.828 91.4688C58.7343 85.1875 63.8593 80.0625 70.203 80.0625C71.453 80.0625 72.6562 80.2656 73.7812 80.625V68.0469C72.6093 67.875 71.4062 67.7812 70.203 67.7812C70.1405 67.7812 70.0937 67.7812 70.0312 67.7812V77.0313C68.9062 76.6719 67.703 76.4688 66.453 76.4688Z" fill="#F00044"/>
<path d="M93.875 38.75H93.7812H90.5312C91.4687 43.4531 94.1093 47.5469 97.7968 50.3281C95.375 47.125 93.9062 43.125 93.875 38.75Z" fill="#F00044"/>
<path d="M113 57.8906C111.766 57.8906 110.578 57.7656 109.406 57.5469V66.5625C105.156 66.5625 101.031 65.7344 97.1562 64.0781C94.6562 63.0156 92.3281 61.6562 90.1875 60.0156L90.25 87.8125C90.2187 94.0625 87.75 99.9219 83.2812 104.344C79.6406 107.937 75.0312 110.234 70.0312 110.969C68.8593 111.141 67.6562 111.234 66.4531 111.234C61.1093 111.234 56.0156 109.5 51.875 106.297C52.3437 106.859 52.8437 107.406 53.3906 107.937C57.8906 112.375 63.8593 114.828 70.2187 114.828C71.4218 114.828 72.625 114.734 73.7968 114.562C78.7968 113.828 83.4062 111.531 87.0468 107.937C91.5156 103.516 93.9843 97.6562 94.0156 91.4062L93.7812 63.6094C95.9062 65.25 98.2343 66.625 100.75 67.6719C104.641 69.3125 108.766 70.1562 113 70.1562" fill="#F00044"/>
<path d="M53.3437 74.7031C57.7969 70.2812 63.7187 67.8281 70.0312 67.7812V64.4531C68.8594 64.2812 67.6562 64.1875 66.4531 64.1875C60.0781 64.1875 54.0937 66.6406 49.5937 71.1094C45.1719 75.5 42.6406 81.5 42.6562 87.7344C42.6562 94.0156 45.1406 99.9062 49.625 104.359C50.3437 105.062 51.0781 105.719 51.8594 106.312C48.3281 102.109 46.4062 96.8594 46.3906 91.3281C46.4062 85.0937 48.9219 79.0937 53.3437 74.7031Z" fill="#08FFF9"/>
<path d="M109.406 57.5469V54.2031H109.375C105.031 54.2031 101.031 52.7656 97.8125 50.3281C100.609 54.0156 104.703 56.6406 109.406 57.5469Z" fill="#08FFF9"/>
<path d="M69.5625 102.531C71.0468 102.609 72.4687 102.406 73.7812 101.984C78.3125 100.5 81.5781 96.2812 81.5781 91.3125L81.5937 72.7188V38.75H90.5312C90.2968 37.5781 90.1718 36.3906 90.1562 35.1562H77.8437V69.1094L77.8281 87.7031C77.8281 92.6719 74.5625 96.8906 70.0312 98.375C68.7187 98.8125 67.2968 99.0156 65.8125 98.9219C63.9218 98.8125 62.1562 98.25 60.625 97.3438C62.5468 100.312 65.8281 102.328 69.5625 102.531Z" fill="#08FFF9"/>
<path d="M70.0312 110.969C75.0312 110.234 79.6406 107.938 83.2812 104.344C87.75 99.9219 90.2187 94.0625 90.25 87.8125L90.1875 60.0156C92.3125 61.6562 94.6406 63.0313 97.1562 64.0781C101.047 65.7188 105.172 66.5625 109.406 66.5625V57.5469C104.703 56.6406 100.609 54.0156 97.8125 50.3281C94.125 47.5469 91.4687 43.4531 90.5469 38.75H81.5937V72.7031L81.5781 91.2969C81.5781 96.2656 78.3125 100.484 73.7812 101.969C72.4687 102.406 71.0469 102.609 69.5625 102.516C65.8125 102.312 62.5469 100.297 60.625 97.3438C57.3594 95.4062 55.1406 91.8906 55.0781 87.8594C54.9844 81.5781 60.1094 76.4531 66.4531 76.4531C67.7031 76.4531 68.9062 76.6562 70.0312 77.0156V67.7656C63.7187 67.8125 57.7969 70.2656 53.3437 74.6875C48.9219 79.0781 46.3906 85.0781 46.4062 91.2969C46.4062 96.8281 48.3281 102.078 51.875 106.281C56.0312 109.484 61.1094 111.219 66.4531 111.219C67.6562 111.234 68.8594 111.141 70.0312 110.969Z" fill="black"/>
<defs>
<linearGradient id="paint0_linear" x1="85.1534" y1="146.89" x2="159.505" y2="82.5399" gradientUnits="userSpaceOnUse">
<stop stop-color="#FFDD55"/>
<stop offset="0.5" stop-color="#FF543E"/>
<stop offset="1" stop-color="#C837AB"/>
</linearGradient>
<clipPath id="clip0">
<rect width="80" height="80" fill="white" transform="translate(80 72)"/>
</clipPath>
<clipPath id="clip1">
<rect width="80" height="80" fill="white" transform="translate(78 3)"/>
</clipPath>
</defs>
</svg>
