<svg width="300" height="300" viewBox="0 0 300 300" fill="none" xmlns="http://www.w3.org/2000/svg">
<path d="M225 0H32.8125C22.4736 0 14.0625 8.41113 14.0625 18.75V281.25C14.0625 291.589 22.4736 300 32.8125 300H225C235.339 300 243.75 291.589 243.75 281.25V18.75C243.75 8.41113 235.339 0 225 0Z" fill="#6B7B8B"/>
<path d="M206.25 290.625C208.839 290.625 210.938 288.526 210.938 285.938V14.0625C210.938 11.4738 208.839 9.375 206.25 9.375H16.585C14.9842 12.1354 14.0625 15.3357 14.0625 18.75V281.25C14.0625 284.664 14.9842 287.865 16.585 290.625H206.25Z" fill="#55697A"/>
<path d="M215.625 56.25H196.875C194.286 56.25 192.188 58.3488 192.188 60.9375V107.812C192.188 110.401 194.286 112.5 196.875 112.5H215.625C220.803 112.5 225 108.303 225 103.125V65.625C225 60.4471 220.803 56.25 215.625 56.25Z" fill="#FD8E61"/>
<path d="M215.625 121.875H196.875C194.286 121.875 192.188 123.974 192.188 126.562V173.438C192.188 176.026 194.286 178.125 196.875 178.125H215.625C220.803 178.125 225 173.928 225 168.75V131.25C225 126.072 220.803 121.875 215.625 121.875Z" fill="#FDDD88"/>
<path d="M215.625 187.5H196.875C194.286 187.5 192.188 189.599 192.188 192.188V239.062C192.188 241.651 194.286 243.75 196.875 243.75H215.625C220.803 243.75 225 239.553 225 234.375V196.875C225 191.697 220.803 187.5 215.625 187.5Z" fill="#49DFE5"/>
<path d="M18.75 29.1504V270.85C18.75 274.005 21.3076 276.562 24.4629 276.562H191.162C194.317 276.562 196.875 274.005 196.875 270.85V29.1504C196.875 25.9951 194.317 23.4375 191.162 23.4375H24.4629C21.3076 23.4375 18.75 25.9951 18.75 29.1504ZM48.0158 220.267C39.351 220.951 32.1744 213.773 32.8576 205.109C33.3955 198.292 38.918 192.77 45.7342 192.233C54.399 191.549 61.5756 198.727 60.8924 207.391C60.3545 214.208 54.832 219.73 48.0158 220.267ZM48.0158 164.017C39.351 164.701 32.1744 157.523 32.8576 148.859C33.3955 142.042 38.918 136.52 45.7342 135.983C54.399 135.299 61.5756 142.477 60.8924 151.141C60.3545 157.958 54.832 163.48 48.0158 164.017ZM48.0158 107.767C39.351 108.451 32.1744 101.273 32.8576 92.6086C33.3955 85.7924 38.918 80.2699 45.7342 79.7326C54.399 79.0494 61.5756 86.2266 60.8924 94.8914C60.3545 101.708 54.832 107.23 48.0158 107.767Z" fill="#F4F6F7"/>
<path d="M37.5 98.4375H4.6875C2.09883 98.4375 0 96.3387 0 93.75C0 91.1613 2.09883 89.0625 4.6875 89.0625H37.5C40.0887 89.0625 42.1875 91.1613 42.1875 93.75C42.1875 96.3387 40.0887 98.4375 37.5 98.4375Z" fill="#D5D9DE"/>
<path d="M37.5 154.688H4.6875C2.09883 154.688 0 152.589 0 150C0 147.411 2.09883 145.312 4.6875 145.312H37.5C40.0887 145.312 42.1875 147.411 42.1875 150C42.1875 152.589 40.0887 154.688 37.5 154.688Z" fill="#D5D9DE"/>
<path d="M37.5 210.938H4.6875C2.09883 210.938 0 208.839 0 206.25C0 203.661 2.09883 201.562 4.6875 201.562H37.5C40.0887 201.562 42.1875 203.661 42.1875 206.25C42.1875 208.839 40.0887 210.938 37.5 210.938Z" fill="#D5D9DE"/>
<path d="M173.438 98.4375H70.3125C67.7238 98.4375 65.625 96.3387 65.625 93.75C65.625 91.1613 67.7238 89.0625 70.3125 89.0625H173.438C176.026 89.0625 178.125 91.1613 178.125 93.75C178.125 96.3387 176.026 98.4375 173.438 98.4375Z" fill="#D5D9DE"/>
<path d="M173.438 154.688H70.3125C67.7238 154.688 65.625 152.589 65.625 150C65.625 147.411 67.7238 145.312 70.3125 145.312H173.438C176.026 145.312 178.125 147.411 178.125 150C178.125 152.589 176.026 154.688 173.438 154.688Z" fill="#D5D9DE"/>
<path d="M173.438 210.938H70.3125C67.7238 210.938 65.625 208.839 65.625 206.25C65.625 203.661 67.7238 201.562 70.3125 201.562H173.438C176.026 201.562 178.125 203.661 178.125 206.25C178.125 208.839 176.026 210.938 173.438 210.938Z" fill="#D5D9DE"/>
<path d="M281.246 253.125C278.747 253.125 276.671 251.153 276.567 248.633C276.459 246.046 278.469 243.861 281.055 243.754L290.625 243.355V178.711C290.625 176.122 292.724 174.023 295.313 174.023C297.901 174.023 300 176.122 300 178.711V247.852C300 250.365 298.018 252.43 295.508 252.535L281.445 253.121C281.379 253.124 281.312 253.125 281.246 253.125Z" fill="#55697A"/>
<path d="M269.531 51.5625C266.943 51.5625 264.844 49.4637 264.844 46.875V28.125C264.844 25.5363 266.943 23.4375 269.531 23.4375C272.12 23.4375 274.219 25.5363 274.219 28.125V46.875C274.219 49.4637 272.12 51.5625 269.531 51.5625Z" fill="#55697A"/>
<path d="M281.25 187.5L267.188 196.875L257.812 187.5V58.5938C257.812 52.1215 263.059 46.875 269.531 46.875C276.004 46.875 281.25 52.1215 281.25 58.5938V187.5Z" fill="#FDDD88"/>
<path d="M274.219 47.8564C272.783 47.2283 271.199 46.875 269.531 46.875C263.059 46.875 257.812 52.1215 257.812 58.5938V187.5L262.5 192.188L267.188 187.5V58.5938C267.188 53.7896 270.081 49.6658 274.219 47.8564Z" fill="#FCD56A"/>
<path d="M281.25 187.501V257.812C281.25 262.99 277.053 267.187 271.875 267.187H267.188C262.01 267.187 257.812 262.99 257.812 257.812V187.501" fill="#76E7EB"/>
<path d="M257.812 187.501V257.812C257.812 262.99 262.01 267.187 267.188 267.187H271.875C272.686 267.187 273.468 267.074 274.219 266.88C270.178 265.838 267.188 262.179 267.188 257.812V187.501" fill="#1BD7DE"/>
</svg>
