<svg width="160" height="160" viewBox="0 0 160 160" fill="none" xmlns="http://www.w3.org/2000/svg">
<path d="M143.133 129.488L126.964 123.269L140.359 118.118L138.564 113.451L120 120.591L102.877 114.005L101.082 118.672L113.036 123.269L96.8672 129.488L98.6622 134.155L120 125.948L141.338 134.155L143.133 129.488Z" fill="#B1712C"/>
<path d="M144.412 105L150 152.5H145L132.5 110V105H144.412Z" fill="#C78640"/>
<path d="M15 132.5H40V137.5H15V132.5Z" fill="#91591C"/>
<path d="M7.5 72.5H130V82.5H7.5V72.5Z" fill="#C78640"/>
<path d="M87.5 110V105C87.5 99.0326 89.8705 93.3097 94.0901 89.0901C98.3097 84.8705 104.033 82.5 110 82.5H110C112.298 82.5 114.574 82.0473 116.697 81.1679C118.82 80.2884 120.749 78.9994 122.374 77.3744C123.999 75.7493 125.288 73.8202 126.168 71.697C127.047 69.5738 127.5 67.2981 127.5 65V50C127.5 45.3587 129.344 40.9075 132.626 37.6256C135.908 34.3437 140.359 32.5 145 32.5H152.5V92.5C152.5 97.1413 150.656 101.592 147.374 104.874C144.092 108.156 139.641 110 135 110H87.5Z" fill="#FFC431"/>
<path d="M7.5 7.5H87.5V55H7.5V7.5Z" fill="#548AFF"/>
<path d="M37.5 55H57.5V72.5H37.5V55Z" fill="#E0EDFF"/>
<path d="M47.5 65C46.837 65 46.2011 64.7366 45.7322 64.2678C45.2634 63.7989 45 63.163 45 62.5V55H50V62.5C50 63.163 49.7366 63.7989 49.2678 64.2678C48.7989 64.7366 48.163 65 47.5 65Z" fill="#BDD1F2"/>
<path d="M95 110L90 152.5H95L107.5 110H95Z" fill="#C78640"/>
<path d="M17.5 82.5H37.5V95H17.5V82.5Z" fill="#B1712C"/>
<path d="M27.5 95L42.5 152.5H47.5L37.5 95H27.5Z" fill="#A36522"/>
<path d="M77.5 42.5H110V65H77.5V42.5Z" fill="#7DAFFF"/>
<path d="M27.5 95L12.5 152.5H7.5L17.5 95H27.5Z" fill="#A36522"/>
</svg>
