<svg width="300" height="300" viewBox="0 0 300 300" fill="none" xmlns="http://www.w3.org/2000/svg">
<g clip-path="url(#clip0)">
<path d="M300 137.186C300 116.11 284.695 98.6154 264.594 95.1953C262.744 94.8806 261.287 93.4427 260.944 91.5976C256.604 68.2873 233.9 52.924 210.537 57.7058C208.796 58.0621 206.998 57.3601 205.983 55.9011C186.259 27.557 144.341 27.4299 124.499 55.8185C123.5 57.2488 121.74 57.9636 120.028 57.6297C96.5607 53.0535 74.2623 68.633 69.9861 91.5982C69.6428 93.4433 68.1861 94.8812 66.3363 95.1959C46.2351 98.616 30.9299 116.111 30.9299 137.186C30.9299 158.262 46.2351 175.758 66.3363 179.178C68.1861 179.492 69.6428 180.93 69.9861 182.775C74.2594 205.726 96.5449 221.324 120.028 216.744C121.741 216.41 123.5 217.124 124.499 218.555C133.472 231.394 148.359 239.793 165.211 239.793C182.099 239.793 197.017 231.358 205.983 218.472C206.998 217.013 208.796 216.311 210.537 216.668C233.861 221.441 256.597 206.124 260.944 182.776C261.287 180.931 262.744 179.493 264.594 179.178C284.695 175.757 300 158.262 300 137.186Z" fill="#EAE9E8"/>
<path d="M195.393 220.677C178.542 220.677 163.655 212.277 154.682 199.439C153.682 198.008 151.922 197.294 150.21 197.628C126.727 202.207 104.442 186.61 100.168 163.659C99.825 161.815 98.3684 160.376 96.5186 160.062C76.418 156.641 61.1127 139.146 61.1127 118.07C61.1127 109.238 63.8086 101.039 68.4111 94.2373C67.8234 94.7189 67.1191 95.0623 66.3351 95.1953C46.2346 98.6154 30.9293 116.111 30.9293 137.186C30.9293 158.262 46.2346 175.757 66.3351 179.177C68.185 179.492 69.6416 180.93 69.985 182.775C74.2582 205.725 96.5437 221.323 120.026 216.743C121.74 216.409 123.499 217.124 124.498 218.554C133.471 231.392 148.358 239.792 165.21 239.792C181.543 239.792 196.032 231.902 205.078 219.726C201.946 220.347 198.708 220.677 195.393 220.677Z" fill="#DBDBDB"/>
<path d="M63.9393 265.408C76.2667 265.408 86.26 255.415 86.26 243.088C86.26 230.76 76.2667 220.767 63.9393 220.767C51.6119 220.767 41.6186 230.76 41.6186 243.088C41.6186 255.415 51.6119 265.408 63.9393 265.408Z" fill="#EAE9E8"/>
<path d="M63.9416 243.089C59.8107 235.934 60.0967 227.447 63.9433 220.769C60.1488 220.765 56.3033 221.723 52.7806 223.757C42.1037 229.921 38.4457 243.573 44.6098 254.25C50.7744 264.927 64.4262 268.585 75.1031 262.42C78.6258 260.387 81.3785 257.535 83.2717 254.247C75.5648 254.24 68.0719 250.243 63.9416 243.089Z" fill="#DBDBDB"/>
<path d="M11.1604 255.041C17.324 255.041 22.3207 250.045 22.3207 243.881C22.3207 237.717 17.324 232.721 11.1604 232.721C4.99666 232.721 0 237.717 0 243.881C0 250.045 4.99666 255.041 11.1604 255.041Z" fill="#DBDBDB"/>
</g>
<defs>
<clipPath id="clip0">
<rect width="300" height="300" fill="white"/>
</clipPath>
</defs>
</svg>
