<svg width="300" height="300" viewBox="0 0 300 300" fill="none" xmlns="http://www.w3.org/2000/svg">
<path d="M293.413 146.707C293.413 227.731 227.731 293.413 146.707 293.413C65.6826 293.413 0 227.731 0 146.707C0 65.6826 65.6826 0 146.707 0C227.731 0 293.413 65.6826 293.413 146.707Z" fill="#FFB23C"/>
<path d="M202.994 208.982H29.3413C26.0341 208.982 23.3533 206.301 23.3533 202.994V52.6946C23.3533 49.3874 26.0341 46.7065 29.3413 46.7065H202.994C206.301 46.7065 208.982 49.3874 208.982 52.6946V202.994C208.982 206.301 206.301 208.982 202.994 208.982Z" fill="#B5F3FB"/>
<path d="M202.994 208.982H46.7066C43.3994 208.982 40.7186 206.301 40.7186 202.994V52.6946C40.7186 49.3874 43.3994 46.7065 46.7066 46.7065H202.994C206.301 46.7065 208.982 49.3874 208.982 52.6946V202.994C208.982 206.301 206.301 208.982 202.994 208.982Z" fill="#DCFBFF"/>
<path d="M137.126 109.581V121.557C137.126 123.21 135.785 124.551 134.132 124.551H98.2036C96.5503 124.551 95.2096 123.21 95.2096 121.557V109.581C95.2096 107.928 96.5503 106.587 98.2036 106.587H134.132C135.785 106.587 137.126 107.928 137.126 109.581ZM134.132 136.527H98.2036C96.5503 136.527 95.2096 137.868 95.2096 139.521V151.497C95.2096 153.15 96.5503 154.491 98.2036 154.491H134.132C135.785 154.491 137.126 153.15 137.126 151.497V139.521C137.126 137.868 135.785 136.527 134.132 136.527ZM134.132 166.467H98.2036C96.5503 166.467 95.2096 167.808 95.2096 169.461V181.437C95.2096 183.09 96.5503 184.431 98.2036 184.431H134.132C135.785 184.431 137.126 183.09 137.126 181.437V169.461C137.126 167.808 135.785 166.467 134.132 166.467ZM191.018 76.6467H155.09C153.437 76.6467 152.096 77.9874 152.096 79.6407V91.6168C152.096 93.2701 153.437 94.6108 155.09 94.6108H191.018C192.671 94.6108 194.012 93.2701 194.012 91.6168V79.6407C194.012 77.9874 192.671 76.6467 191.018 76.6467Z" fill="#81D4AE"/>
<path d="M80.2395 79.6407V91.6168C80.2395 93.2701 78.8988 94.6108 77.2455 94.6108H41.3174C39.6641 94.6108 38.3234 93.2701 38.3234 91.6168V79.6407C38.3234 77.9874 39.6641 76.6467 41.3174 76.6467H77.2455C78.8988 76.6467 80.2395 77.9874 80.2395 79.6407ZM77.2455 106.587H41.3174C39.6641 106.587 38.3234 107.928 38.3234 109.581V121.557C38.3234 123.21 39.6641 124.551 41.3174 124.551H77.2455C78.8988 124.551 80.2395 123.21 80.2395 121.557V109.581C80.2395 107.928 78.8988 106.587 77.2455 106.587ZM77.2455 136.527H41.3174C39.6641 136.527 38.3234 137.868 38.3234 139.521V151.497C38.3234 153.15 39.6641 154.491 41.3174 154.491H77.2455C78.8988 154.491 80.2395 153.15 80.2395 151.497V139.521C80.2395 137.868 78.8988 136.527 77.2455 136.527ZM77.2455 166.467H41.3174C39.6641 166.467 38.3234 167.808 38.3234 169.461V181.437C38.3234 183.09 39.6641 184.431 41.3174 184.431H77.2455C78.8988 184.431 80.2395 183.09 80.2395 181.437V169.461C80.2395 167.808 78.8988 166.467 77.2455 166.467ZM134.132 76.6467H98.2036C96.5503 76.6467 95.2096 77.9874 95.2096 79.6407V91.6168C95.2096 93.2701 96.5503 94.6108 98.2036 94.6108H134.132C135.785 94.6108 137.126 93.2701 137.126 91.6168V79.6407C137.126 77.9874 135.785 76.6467 134.132 76.6467ZM191.018 106.587H155.09C153.437 106.587 152.096 107.928 152.096 109.581V121.557C152.096 123.21 153.437 124.551 155.09 124.551H191.018C192.671 124.551 194.012 123.21 194.012 121.557V109.581C194.012 107.928 192.671 106.587 191.018 106.587ZM191.018 136.527H155.09C153.437 136.527 152.096 137.868 152.096 139.521V151.497C152.096 153.15 153.437 154.491 155.09 154.491H191.018C192.671 154.491 194.012 153.15 194.012 151.497V139.521C194.012 137.868 192.671 136.527 191.018 136.527Z" fill="#8AE8F5"/>
<path d="M208.982 58.6826H23.3533V35.3293C23.3533 28.7149 28.715 23.3533 35.3294 23.3533H197.006C203.62 23.3533 208.982 28.7149 208.982 35.3293V58.6826Z" fill="#EF3C54"/>
<path d="M208.982 58.6826H40.7186V35.3293C40.7186 28.7149 46.0802 23.3533 52.6946 23.3533H197.006C203.62 23.3533 208.982 28.7149 208.982 35.3293V58.6826Z" fill="#F5596E"/>
<path d="M108.982 204.491C108.982 151.743 151.743 108.982 204.491 108.982C257.239 108.982 300 151.743 300 204.491C300 257.239 257.239 300 204.491 300C151.743 300 108.982 257.239 108.982 204.491Z" fill="#0AB174"/>
<path d="M126.946 204.491C126.946 161.664 161.664 126.946 204.491 126.946C247.318 126.946 282.036 161.664 282.036 204.491C282.036 247.318 247.318 282.036 204.491 282.036C161.664 282.036 126.946 247.318 126.946 204.491Z" fill="#FFD69E"/>
<path d="M282.036 204.491C282.036 244.485 251.757 277.403 212.874 281.584C173.991 277.403 143.713 244.485 143.713 204.491C143.713 164.497 173.991 131.579 212.874 127.398C251.757 131.579 282.036 164.497 282.036 204.491Z" fill="#FFE2BD"/>
<path d="M264.053 202.994H202.994V144.929C203.492 144.917 203.99 144.91 204.491 144.91C236.896 144.91 263.259 170.78 264.053 202.994Z" fill="#9FDFC2"/>
<path d="M213.473 202.994H195.509V140.331C195.509 138.328 196.51 136.459 198.175 135.348L203.827 131.581C204.229 131.313 204.753 131.313 205.156 131.581L210.807 135.348C212.473 136.459 213.474 138.329 213.474 140.331V202.994H213.473Z" fill="#027348"/>
<path d="M197.006 213.473V195.509H259.669C261.672 195.509 263.541 196.51 264.651 198.175L268.419 203.827C268.687 204.229 268.687 204.753 268.419 205.156L264.651 210.807C263.541 212.473 261.671 213.474 259.669 213.474H197.006V213.473Z" fill="#0AB174"/>
<path d="M186.826 204.491C186.826 194.735 194.735 186.826 204.491 186.826C214.247 186.826 222.156 194.735 222.156 204.491C222.156 214.247 214.247 222.156 204.491 222.156C194.735 222.156 186.826 214.247 186.826 204.491ZM149.401 216.168C155.85 216.168 161.078 210.94 161.078 204.491C161.078 198.042 155.85 192.814 149.401 192.814C142.952 192.814 137.725 198.042 137.725 204.491C137.725 210.94 142.952 216.168 149.401 216.168ZM204.491 274.85C210.94 274.85 216.168 269.623 216.168 263.174C216.168 256.725 210.94 251.497 204.491 251.497C198.042 251.497 192.814 256.725 192.814 263.174C192.814 269.623 198.042 274.85 204.491 274.85Z" fill="#FFC981"/>
</svg>
