<svg width="300" height="300" viewBox="0 0 300 300" fill="none" xmlns="http://www.w3.org/2000/svg">
<path d="M195.113 37.5H184.375H115.625H104.887C91.85 37.5 81.25 49.0625 81.25 63.2875V236.725C81.25 250.938 91.85 262.5 104.887 262.5H195.125C208.162 262.5 218.762 250.938 218.762 236.725V63.2875C218.75 49.0625 208.15 37.5 195.113 37.5Z" fill="#607D8B"/>
<path d="M201.562 234.375C201.562 239.55 197.713 243.75 192.963 243.75H107.025C102.275 243.75 98.4375 239.55 98.4375 234.375V62.5C98.4375 57.325 102.288 53.125 107.025 53.125H111.325C116.075 53.125 119.913 57.325 119.913 62.5C119.913 67.675 123.763 71.875 128.513 71.875H171.487C176.237 71.875 180.087 67.675 180.087 62.5C180.087 57.325 183.938 53.125 188.675 53.125H192.975C197.725 53.125 201.575 57.325 201.575 62.5V234.375H201.562Z" fill="#ECEFF1"/>
<path d="M264.5 53.25C261.875 50 259.125 47 256.125 44C253.125 41 250.125 38.25 247 35.5C220 12.5 186 0 150.125 0C150 0 150 0 150 0C67.375 0 0 67.25 0 149.875C0 185.875 12.5 219.75 35.5 246.75C38.125 250 40.875 253 43.875 256C46.875 259 49.875 261.75 53 264.5C80 287.5 114 300 149.875 300H150C232.625 300 300 232.75 300 150.125C300 114.125 287.5 80.25 264.5 53.25ZM150 281.25C150 281.25 150 281.25 149.875 281.25C119.125 281.25 89.875 270.625 66.375 251.125C63.25 248.5 60.125 245.75 57.125 242.75C54.125 239.75 51.375 236.625 48.75 233.375C29.25 209.875 18.75 180.75 18.75 149.875C18.75 77.625 77.625 18.75 150 18.75H150.125C180.875 18.75 210.125 29.375 233.625 48.875C236.75 51.5 239.875 54.25 242.875 57.25C245.875 60.25 248.625 63.375 251.25 66.625C270.75 90.125 281.25 119.25 281.25 150.125C281.25 222.375 222.375 281.25 150 281.25Z" fill="#F44336"/>
<path d="M264.5 53.25L251.25 66.625L66.375 251.125L53 264.5C49.875 261.75 46.875 259 43.875 256C40.875 253 38.125 250 35.5 246.75L48.75 233.375L233.625 48.875L247 35.5C250.125 38.25 253.125 41 256.125 44C259.125 47 261.875 50 264.5 53.25Z" fill="#F44336"/>
</svg>
