<svg width="300" height="300" viewBox="0 0 300 300" fill="none" xmlns="http://www.w3.org/2000/svg">
<g clip-path="url(#clip0)">
<path d="M78.2409 64.3765H95.8778C133.368 64.3765 163.758 94.5435 163.758 131.756V234.805H10.3597V131.756C10.3597 94.5435 40.7512 64.3765 78.2409 64.3765Z" fill="#9D6B6B"/>
<path d="M83.6339 64.3745C69.0636 64.3745 57.2559 94.5427 57.2559 131.757V234.804H10.3609V131.757C10.3609 94.5427 40.7535 64.3745 78.2397 64.3745H83.6339Z" fill="#8B5E5E"/>
<path d="M102.757 240.296C107.455 241.542 112.894 243.196 118.623 245.327C125.537 247.895 132.868 251.169 139.812 255.298C143.457 257.469 145.928 261.156 146.57 265.327C147.693 272.672 149.527 285.624 150.881 300H23.2477C24.6019 285.624 26.4359 272.672 27.5586 265.327C28.2009 261.157 30.6719 257.469 34.317 255.298C41.2606 251.169 48.5915 247.895 55.5062 245.327C61.2345 243.196 66.6735 241.542 71.3722 240.296" fill="#D3EFFB"/>
<path d="M98.301 300H75.8272C76.6719 293.734 78.1128 286.801 80.5779 281.414H93.5449C96.01 286.801 97.4562 293.734 98.301 300Z" fill="#DD636E"/>
<path d="M71.3645 270.584L80.5796 281.413H87.0623H93.5455L102.761 270.584V247.773H66.3889" fill="#DD636E"/>
<path d="M45.7103 249.365C42.8922 251.714 40.9773 255.66 40.4797 260.117C39.5541 268.463 38.0087 283.511 36.9385 300H23.2477C24.6019 285.624 26.4359 272.673 27.5586 265.327C28.2009 261.157 30.6719 257.469 34.317 255.298C38.0435 253.081 41.8851 251.111 45.7103 249.365Z" fill="#9DC6FB"/>
<path d="M118.621 245.329L107.737 275.333L87.0623 255.604L66.3877 275.333L55.5038 245.329C68.2796 240.568 79.6381 238.219 84.5217 237.346C86.2052 237.041 87.9182 237.041 89.6017 237.346C94.4865 238.219 105.845 240.568 118.621 245.329Z" fill="#9DC6FB"/>
<path d="M102.758 214.005V240.025C102.758 248.627 95.7302 255.603 87.0635 255.603C78.392 255.603 71.364 248.627 71.364 240.025V214.005H102.758Z" fill="#FFDDCE"/>
<path d="M92.1896 254.754C90.584 255.302 88.8598 255.602 87.0652 255.602C78.3938 255.602 71.3657 248.626 71.3657 240.024V214.005H81.6145V240.024C81.6145 246.85 86.0352 252.649 92.1896 254.754Z" fill="#FFCBBE"/>
<path d="M71.3645 214.005H102.758V237.975H71.3645V214.005Z" fill="#FFCBBE"/>
<path d="M21.491 192.34C10.1738 192.34 1 183.233 1 172C1 170.454 1.17355 168.948 1.50293 167.501C4.16104 155.815 21.491 157.732 21.491 169.712H152.634C152.634 157.732 169.964 155.815 172.622 167.501C172.952 168.948 173.125 170.454 173.125 172C173.125 183.234 163.951 192.34 152.634 192.34" fill="#FFCBBE"/>
<path d="M152.631 146.539V182.291C152.631 208.488 131.235 229.73 104.838 229.73H69.279C42.8868 229.73 21.4868 208.493 21.4868 182.291V146.947C29.6246 146.713 40.8226 145.334 52.8853 142.901C77.6057 137.913 105.981 128.485 119.182 115.382C119.183 115.382 132.242 141.87 152.631 146.539Z" fill="#FFDDCE"/>
<path d="M100.678 229.73H69.2796C42.8875 229.73 21.4874 208.492 21.4874 182.291V146.947C29.6253 146.712 40.8232 145.334 52.8859 142.901V182.291C52.8859 208.488 74.2812 229.73 100.678 229.73Z" fill="#FFCBBE"/>
<path d="M57.3468 155.582C57.1319 155.582 49.9155 155.636 49.6098 155.638C47.5744 155.638 45.9186 157.282 45.9186 159.302C45.9186 161.323 47.5744 162.967 49.6098 162.967H51.324C51.1563 163.908 51.0707 164.881 51.0707 165.866C51.0707 171.537 53.8859 176.15 57.3468 176.15C60.8071 176.15 63.6234 171.537 63.6234 165.866C63.6234 160.196 60.8077 155.582 57.3468 155.582Z" fill="#2B4D66"/>
<path d="M124.508 155.639C124.17 155.637 116.513 155.583 116.299 155.583C112.838 155.583 110.023 160.197 110.023 165.867C110.023 171.537 112.838 176.151 116.299 176.151C119.759 176.151 122.575 171.537 122.575 165.867C122.575 164.885 122.49 163.91 122.321 162.968H124.508C126.544 162.968 128.2 161.324 128.2 159.303C128.2 157.283 126.544 155.639 124.508 155.639Z" fill="#2B4D66"/>
<path d="M87.0588 203.602C82.8854 203.602 78.712 202.025 75.535 198.871C73.7865 197.136 73.7865 194.323 75.5344 192.588C77.2829 190.852 80.1175 190.852 81.8647 192.587C84.7294 195.43 89.3898 195.43 92.2534 192.587C94.0012 190.852 96.8358 190.853 98.5837 192.588C100.332 194.323 100.332 197.136 98.5831 198.871C95.4061 202.025 91.2327 203.602 87.0588 203.602Z" fill="#DD636E"/>
<path d="M221.984 152.358C263.116 152.358 296.461 119.26 296.461 78.4319C296.461 37.6034 263.116 4.50537 221.984 4.50537C180.852 4.50537 147.507 37.6034 147.507 78.4319C147.507 119.26 180.852 152.358 221.984 152.358Z" fill="#D3EFFB"/>
<path d="M234.998 151.287C230.874 151.997 226.63 152.361 222.303 152.361C181.17 152.361 147.824 119.261 147.824 78.4318C147.824 37.6031 181.17 4.50293 222.303 4.50293C226.629 4.50293 230.873 4.8668 234.998 5.57637C199.918 11.5535 173.22 41.8975 173.22 78.4318C173.22 114.966 199.918 145.31 234.998 151.287Z" fill="#9DC6FB"/>
<path d="M221.984 87.8497H187.383C182.143 87.8497 177.895 83.6333 177.895 78.4319C177.895 73.2306 182.143 69.0142 187.383 69.0142H221.984C227.224 69.0142 221.984 73.2306 221.984 78.4319V87.8497Z" fill="#365E7D"/>
<path d="M221.984 87.8493C216.744 87.8493 212.496 83.6329 212.496 78.4315V54.3841C212.496 49.1827 216.744 44.9663 221.984 44.9663C227.224 44.9663 231.472 49.1827 231.472 54.3841V78.4315C231.472 83.6323 227.224 87.8493 221.984 87.8493Z" fill="#2B4D66"/>
<path d="M221.985 26.2437C219.478 26.2437 217.446 24.227 217.446 21.7391V6.83574C217.446 4.34785 219.478 2.33105 221.985 2.33105C224.492 2.33105 226.523 4.34785 226.523 6.83574V21.7385C226.523 24.227 224.491 26.2437 221.985 26.2437Z" fill="#365E7D"/>
<path d="M221.985 154.533C219.478 154.533 217.446 152.517 217.446 150.029V135.125C217.446 132.637 219.478 130.621 221.985 130.621C224.492 130.621 226.523 132.637 226.523 135.125V150.029C226.523 152.517 224.491 154.533 221.985 154.533Z" fill="#365E7D"/>
<path d="M294.113 82.9366H279.099C276.592 82.9366 274.561 80.9198 274.561 78.4319C274.561 75.944 276.592 73.9272 279.099 73.9272H294.113C296.62 73.9272 298.651 75.944 298.651 78.4319C298.651 80.9198 296.619 82.9366 294.113 82.9366Z" fill="#365E7D"/>
<path d="M164.869 82.9366H149.855C147.349 82.9366 145.317 80.9198 145.317 78.4319C145.317 75.944 147.349 73.9272 149.855 73.9272H164.869C167.376 73.9272 169.407 75.944 169.407 78.4319C169.407 80.9198 167.376 82.9366 164.869 82.9366Z" fill="#365E7D"/>
<path d="M276.779 51.5375C275.21 51.5375 273.685 50.7295 272.845 49.284C271.591 47.1295 272.335 44.3744 274.506 43.1304L282.181 38.7324C284.35 37.489 287.127 38.2267 288.38 40.3818C289.633 42.5363 288.889 45.2914 286.719 46.5353L279.044 50.9334C278.33 51.3429 277.549 51.5375 276.779 51.5375Z" fill="#365E7D"/>
<path d="M159.523 118.736C157.955 118.736 156.429 117.928 155.589 116.483C154.335 114.328 155.079 111.573 157.25 110.329L164.924 105.931C167.094 104.687 169.87 105.425 171.123 107.58C172.377 109.734 171.633 112.489 169.462 113.733L161.788 118.131C161.074 118.54 160.293 118.736 159.523 118.736Z" fill="#365E7D"/>
<path d="M253.613 28.5516C252.843 28.5516 252.062 28.3571 251.348 27.9475C249.178 26.7036 248.434 23.9485 249.687 21.7934L254.118 14.1751C255.372 12.02 258.147 11.2823 260.318 12.5263C262.488 13.7702 263.232 16.5253 261.979 18.6804L257.548 26.2987C256.707 27.7436 255.182 28.5516 253.613 28.5516Z" fill="#365E7D"/>
<path d="M185.916 144.942C185.146 144.942 184.366 144.747 183.651 144.338C181.48 143.094 180.736 140.339 181.99 138.184L186.42 130.566C187.673 128.411 190.448 127.673 192.62 128.918C194.79 130.162 195.534 132.917 194.281 135.071L189.85 142.689C189.01 144.134 187.484 144.942 185.916 144.942Z" fill="#365E7D"/>
<path d="M190.355 28.5517C188.786 28.5517 187.26 27.7437 186.42 26.2982L181.99 18.6799C180.736 16.5254 181.48 13.7703 183.651 12.5263C185.821 11.283 188.597 12.0207 189.85 14.1758L194.281 21.7941C195.534 23.9486 194.79 26.7037 192.62 27.9476C191.905 28.3566 191.125 28.5517 190.355 28.5517Z" fill="#365E7D"/>
<path d="M258.053 144.942C256.484 144.942 254.959 144.134 254.119 142.689L249.687 135.071C248.434 132.916 249.177 130.161 251.348 128.917C253.518 127.673 256.294 128.411 257.548 130.566L261.979 138.183C263.232 140.338 262.489 143.093 260.318 144.338C259.604 144.747 258.823 144.942 258.053 144.942Z" fill="#365E7D"/>
<path d="M167.19 51.5376C166.42 51.5376 165.639 51.343 164.925 50.9335L157.25 46.5354C155.08 45.2915 154.336 42.5364 155.589 40.3819C156.842 38.2268 159.619 37.4885 161.789 38.7331L169.463 43.1311C171.634 44.3751 172.377 47.1301 171.124 49.2846C170.283 50.7295 168.758 51.5376 167.19 51.5376Z" fill="#365E7D"/>
<path d="M284.446 118.736C283.676 118.736 282.896 118.541 282.181 118.132L274.506 113.734C272.335 112.49 271.591 109.735 272.845 107.58C274.097 105.425 276.872 104.687 279.044 105.931L286.719 110.329C288.889 111.573 289.633 114.328 288.38 116.482C287.54 117.928 286.014 118.736 284.446 118.736Z" fill="#365E7D"/>
<path d="M221.985 156.863C178.415 156.863 142.969 121.679 142.969 78.4313C142.969 35.1844 178.415 0 221.985 0C265.554 0 301 35.1844 301 78.4318C301 121.679 265.554 156.863 221.985 156.863ZM221.985 9.00996C183.421 9.00996 152.046 40.1525 152.046 78.4318C152.046 116.711 183.421 147.854 221.985 147.854C260.549 147.854 291.923 116.711 291.923 78.4318C291.923 40.1525 260.549 9.00996 221.985 9.00996Z" fill="#DD636E"/>
</g>
<defs>
<clipPath id="clip0">
<rect width="300" height="300" fill="white"/>
</clipPath>
</defs>
</svg>
