<svg width="160" height="160" viewBox="0 0 160 160" fill="none" xmlns="http://www.w3.org/2000/svg">
<path d="M51.875 1.20752H0V76.2075H32.0172L51.875 86.1363L65.9375 93.1675V76.2075H103.438V1.20752H51.875Z" fill="#91E6A9"/>
<path d="M65.9375 76.2075H103.438V1.20752H51.875V86.1363L65.9375 93.1675V76.2075Z" fill="#26BFA6"/>
<path d="M108.125 66.8325H56.5625V141.833H84.6875V158.793L108.125 147.074L118.608 141.833H160V66.8325H108.125Z" fill="#FF80AA"/>
<path d="M160 141.833V66.8325H108.125V147.074L118.608 141.833H160Z" fill="#FF3377"/>
<path d="M124.128 94.9575L117.5 88.3291L108.125 97.7041L98.75 88.3291L92.1216 94.9575L101.497 104.333L92.1216 113.708L98.75 120.336L108.125 110.961L117.5 120.336L124.128 113.708L114.753 104.333L124.128 94.9575Z" fill="#F0F7FF"/>
<path d="M124.128 113.708L114.753 104.333L124.128 94.9575L117.5 88.3291L108.125 97.7041V110.961L117.5 120.336L124.128 113.708Z" fill="#DFE7F4"/>
<path d="M65.9375 22.7041L51.875 36.7666L47.1875 41.4541L37.8125 32.0791L31.1841 38.7075L47.1875 54.711L51.875 50.0235L72.566 29.3325L65.9375 22.7041Z" fill="#F0F7FF"/>
<path d="M65.9375 22.7041L51.875 36.7666V50.0235L72.5659 29.3325L65.9375 22.7041Z" fill="#DFE7F4"/>
</svg>
