<svg width="300" height="300" viewBox="0 0 300 300" fill="none" xmlns="http://www.w3.org/2000/svg">
<path d="M234.375 32.8125C244.734 32.8125 253.125 41.2031 253.125 51.5625V243.75C253.125 254.109 244.734 262.5 234.375 262.5H28.125C17.7656 262.5 9.375 254.109 9.375 243.75V51.5625C9.375 41.2031 17.7656 32.8125 28.125 32.8125H234.375Z" fill="#DED8D0"/>
<path d="M28.125 262.5H234.375C244.734 262.5 253.125 254.109 253.125 243.75V142.304C208.765 190.837 133.715 226.541 9.375 233.207V243.75C9.375 254.109 17.7655 262.5 28.125 262.5Z" fill="#C9C4BD"/>
<path d="M239.062 290.625C267.54 290.625 290.625 267.54 290.625 239.062C290.625 210.585 267.54 187.5 239.062 187.5C210.585 187.5 187.5 210.585 187.5 239.062C187.5 267.54 210.585 290.625 239.062 290.625Z" fill="#F5A947"/>
<path d="M269.96 197.853C276.431 206.47 280.312 217.144 280.312 228.75C280.312 257.227 257.227 280.312 228.75 280.312C217.144 280.312 206.47 276.431 197.853 269.96C207.26 282.486 222.192 290.625 239.062 290.625C267.54 290.625 290.625 267.54 290.625 239.062C290.625 222.192 282.486 207.26 269.96 197.853Z" fill="#F09D3A"/>
<path d="M253.125 79.6875H9.375V51.5625C9.375 41.2072 17.7697 32.8125 28.125 32.8125H234.375C244.73 32.8125 253.125 41.2072 253.125 51.5625V79.6875Z" fill="#E34E4B"/>
<path d="M51.5625 56.25C46.3848 56.25 42.1875 52.0527 42.1875 46.875V18.75C42.1875 13.5723 46.3848 9.375 51.5625 9.375C56.7402 9.375 60.9375 13.5723 60.9375 18.75V46.875C60.9375 52.0527 56.7402 56.25 51.5625 56.25Z" fill="#F5A947"/>
<path d="M103.125 56.25C97.9473 56.25 93.75 52.0527 93.75 46.875V18.75C93.75 13.5723 97.9473 9.375 103.125 9.375C108.303 9.375 112.5 13.5723 112.5 18.75V46.875C112.5 52.0527 108.303 56.25 103.125 56.25Z" fill="#F5A947"/>
<path d="M159.375 56.25C154.197 56.25 150 52.0527 150 46.875V18.75C150 13.5723 154.197 9.375 159.375 9.375C164.553 9.375 168.75 13.5723 168.75 18.75V46.875C168.75 52.0527 164.553 56.25 159.375 56.25Z" fill="#F5A947"/>
<path d="M210.938 56.25C205.76 56.25 201.562 52.0527 201.562 46.875V18.75C201.562 13.5723 205.76 9.375 210.938 9.375C216.115 9.375 220.312 13.5723 220.312 18.75V46.875C220.312 52.0527 216.115 56.25 210.938 56.25Z" fill="#F5A947"/>
<path d="M37.5 103.125H65.625V131.25H37.5V103.125Z" fill="#50B6CF"/>
<path d="M89.0625 103.125H117.188V131.25H89.0625V103.125Z" fill="#50B6CF"/>
<path d="M140.625 103.125H168.75V131.25H140.625V103.125Z" fill="#50B6CF"/>
<path d="M192.188 103.125H220.312V131.25H192.188V103.125Z" fill="#50B6CF"/>
<path d="M37.5 154.688H65.625V182.812H37.5V154.688Z" fill="#50B6CF"/>
<path d="M89.0625 154.688H117.188V182.812H89.0625V154.688Z" fill="#50B6CF"/>
<path d="M140.625 154.688H168.75V182.812H140.625V154.688Z" fill="#50B6CF"/>
<path d="M192.188 154.688H220.312V182.812H192.188V154.688Z" fill="#50B6CF"/>
<path d="M37.5 206.25H65.625V234.375H37.5V206.25Z" fill="#50B6CF"/>
<path d="M89.0625 206.25H117.188V234.375H89.0625V206.25Z" fill="#50B6CF"/>
<path d="M140.625 206.25H168.75V234.375H140.625V206.25Z" fill="#50B6CF"/>
<path d="M218.555 261.475L212.695 254.15L234.375 236.81V201.562H243.75V241.315L218.555 261.475Z" fill="#223B5A"/>
<path d="M239.062 248.438C244.24 248.438 248.438 244.24 248.438 239.062C248.438 233.885 244.24 229.688 239.062 229.688C233.885 229.688 229.688 233.885 229.688 239.062C229.688 244.24 233.885 248.438 239.062 248.438Z" fill="#223B5A"/>
</svg>
