<svg width="746" height="834" viewBox="0 0 746 834" fill="none" xmlns="http://www.w3.org/2000/svg">
<path d="M746 721.248H2.98578V721.798H746V721.248Z" fill="#EBEBEB"/>
<path d="M671.55 756.688H622.333V757.239H671.55V756.688Z" fill="#EBEBEB"/>
<path d="M495.188 762.679H482.274V763.23H495.188V762.679Z" fill="#EBEBEB"/>
<path d="M620.847 736.248H592.33V736.798H620.847V736.248Z" fill="#EBEBEB"/>
<path d="M145.124 739.948H80.9428V740.499H145.124V739.948Z" fill="#EBEBEB"/>
<path d="M167.772 739.948H158.365V740.499H167.772V739.948Z" fill="#EBEBEB"/>
<path d="M337.565 749.243H198.354V749.794H337.565V749.243Z" fill="#EBEBEB"/>
<path d="M355.189 623.011H68.2521C63.5711 623.011 59.7668 617.372 59.7668 610.434V12.577C59.7668 5.63871 63.5711 0 68.2521 0H355.204C359.885 0 363.689 5.63871 363.689 12.577V610.434C363.674 617.372 359.87 623.011 355.189 623.011ZM68.2521 0.550655C63.7791 0.550655 60.1384 5.94707 60.1384 12.577V610.434C60.1384 617.064 63.7791 622.46 68.2521 622.46H355.204C359.677 622.46 363.318 617.064 363.318 610.434V12.577C363.318 5.94707 359.677 0.550655 355.204 0.550655H68.2521Z" fill="#EBEBEB"/>
<path d="M676.617 623.011H389.665C384.984 623.011 381.18 617.372 381.18 610.434V12.577C381.18 5.63871 384.984 0 389.665 0H676.617C681.298 0 685.102 5.63871 685.102 12.577V610.434C685.102 617.372 681.298 623.011 676.617 623.011ZM389.665 0.550655C385.192 0.550655 381.551 5.94707 381.551 12.577V610.434C381.551 617.064 385.192 622.46 389.665 622.46H676.617C681.09 622.46 684.731 617.064 684.731 610.434V12.577C684.731 5.94707 681.09 0.550655 676.617 0.550655H389.665Z" fill="#EBEBEB"/>
<path d="M410.499 721.24L410.499 354.724H329.079L329.079 721.24H410.499Z" fill="#F0F0F0"/>
<path d="M406.028 472.853V365.432H333.554V472.853H406.028Z" fill="#F5F5F5"/>
<path d="M406.031 589.927V482.506H333.557V589.927H406.031Z" fill="#F5F5F5"/>
<path d="M406.019 707.002V599.58H333.546V707.002H406.019Z" fill="#F5F5F5"/>
<path d="M385.831 364.027H353.748C353.748 370.172 357.106 375.172 361.267 375.172H378.327C382.458 375.15 385.831 370.172 385.831 364.027Z" fill="#E6E6E6"/>
<path d="M385.831 481.097H353.748C353.748 487.242 357.106 492.242 361.267 492.242H378.327C382.458 492.242 385.831 487.242 385.831 481.097Z" fill="#E6E6E6"/>
<path d="M385.831 598.166H353.748C353.748 604.311 357.106 609.311 361.267 609.311H378.327C382.458 609.311 385.831 604.311 385.831 598.166Z" fill="#E6E6E6"/>
<path d="M451.152 721.247L451.152 354.731H410.479L410.479 721.247H451.152Z" fill="#F5F5F5"/>
<path d="M627.842 712.249H650.415V436.305H627.842V712.249Z" fill="#F0F0F0"/>
<path d="M430.545 721.245H647.297V712.236H430.545V721.245Z" fill="#F0F0F0"/>
<path d="M627.846 436.295H427.41V712.239H627.846V436.295Z" fill="#FAFAFA"/>
<path d="M466.656 597.549H588.6C600.577 597.549 610.311 583.122 610.311 565.369C610.311 547.615 600.577 533.188 588.6 533.188H466.656C454.679 533.188 444.945 547.615 444.945 565.369C444.945 583.1 454.679 597.549 466.656 597.549ZM588.6 535.347C599.76 535.347 608.854 548.805 608.854 565.369C608.854 581.91 599.775 595.39 588.6 595.39H466.656C455.496 595.39 446.402 581.932 446.402 565.369C446.402 548.827 455.481 535.347 466.656 535.347H588.6Z" fill="#F0F0F0"/>
<path d="M466.656 677.592H588.6C600.577 677.592 610.311 663.165 610.311 645.412C610.311 627.659 600.577 613.232 588.6 613.232H466.656C454.679 613.232 444.945 627.659 444.945 645.412C444.945 663.165 454.679 677.592 466.656 677.592ZM588.6 615.413C599.76 615.413 608.854 628.871 608.854 645.434C608.854 661.976 599.775 675.456 588.6 675.456H466.656C455.496 675.456 446.402 661.998 446.402 645.434C446.402 628.893 455.481 615.413 466.656 615.413H588.6Z" fill="#F0F0F0"/>
<path d="M509.231 558.431H546.04C548.536 558.431 550.572 555.413 550.572 551.713C550.572 548.012 548.536 544.995 546.04 544.995H509.231C506.734 544.995 504.699 548.012 504.699 551.713C504.699 555.413 506.734 558.431 509.231 558.431Z" fill="#EBEBEB"/>
<path d="M466.656 517.484H588.6C600.577 517.484 610.311 503.057 610.311 485.304C610.311 467.551 600.577 453.124 588.6 453.124H466.656C454.679 453.124 444.945 467.551 444.945 485.304C444.945 503.057 454.679 517.484 466.656 517.484ZM588.6 455.282C599.76 455.282 608.854 468.74 608.854 485.304C608.854 501.845 599.775 515.326 588.6 515.326H466.656C455.496 515.326 446.402 501.867 446.402 485.304C446.402 468.762 455.481 455.282 466.656 455.282H588.6Z" fill="#F0F0F0"/>
<path d="M509.231 478.365H546.04C548.536 478.365 550.572 475.348 550.572 471.647C550.572 467.947 548.536 464.929 546.04 464.929H509.231C506.734 464.929 504.699 467.947 504.699 471.647C504.699 475.348 506.734 478.365 509.231 478.365Z" fill="#EBEBEB"/>
<path d="M509.231 638.474H546.04C548.536 638.474 550.572 635.456 550.572 631.756C550.572 628.055 548.536 625.038 546.04 625.038H509.231C506.734 625.038 504.699 628.055 504.699 631.756C504.699 635.456 506.734 638.474 509.231 638.474Z" fill="#EBEBEB"/>
<path d="M423.286 436.299L627.838 436.299V422.268L423.286 422.268V436.299Z" fill="#F0F0F0"/>
<path d="M654.847 422.286H627.846V436.316H654.847V422.286Z" fill="#E6E6E6"/>
<path d="M481.517 201.408C486.079 204.8 498.443 201.165 494.312 213.566C492.38 219.403 489.215 225.614 485.856 231.76C481.25 240.174 482.126 249.315 487.565 252.618C488.888 253.433 489.958 254.425 490.567 255.724C493.078 261.055 487.149 268.191 484.251 273.499C481.443 278.653 480.18 284.072 482.32 288.037C484.682 292.42 489.631 290.812 493.539 292.133C502.975 295.305 493.272 314.578 494.267 324.49C494.951 331.274 498.666 333.168 503.704 334.115C507.82 334.886 513.303 335.437 513.526 341.692C513.719 347.089 508.979 353.234 507.731 358.917C506.527 364.445 506.928 369.798 508.652 373.895C510.183 377.551 512.709 380.018 516.052 381.075C520.719 382.551 527.792 381.009 528.119 388.829C528.268 392.309 526.633 395.414 527.777 398.608C528.743 401.317 530.928 402.683 533.261 403.388C537.005 404.511 542.415 404.203 546.724 403.035C552.208 401.538 560.306 394.379 557.319 387.485C556.487 385.547 554.882 384.423 553.084 383.873C551.762 383.476 547.943 384.093 547.452 382.771C546.962 381.45 548.284 376.384 548.344 374.534C548.507 369.225 547.868 364.247 546.739 359.622C545.223 353.366 542.831 347.75 539.665 343.014C538.373 341.076 536.292 339.644 536.025 336.803C535.772 334.093 536.961 330.834 538.298 328.058C540.394 323.675 543.648 319.512 544.822 314.82C546.665 307.464 542.192 305.129 538.046 303.455C534.301 301.935 529.367 299.997 530.63 293.257C531.552 288.389 535.698 284.402 536.931 279.645C538.596 273.279 534.539 273.015 531.626 270.746C527.852 267.795 526.901 262.53 528.268 255.834C530.526 244.821 544.153 229.271 537.184 222.09C535.415 220.262 533.766 219.667 532.696 216.914C531.552 213.985 531.388 210.35 529.902 207.685C527.554 203.478 522.695 202.773 520.154 198.853C514.953 190.835 526.187 176.628 515.934 173.236C513.586 172.465 511.505 171.738 509.945 169.558C509.009 168.258 508.251 161.981 507.181 161.54C502.47 159.602 493.985 173.148 491.31 177.311C488.1 182.377 476.078 197.355 481.517 201.408Z" fill="#E0E0E0"/>
<path d="M562.312 388.234C559.518 380.569 547.288 372.903 555.402 364.005C559.221 359.82 564.244 356.34 569.43 353.146C576.533 348.763 579.059 338.609 575.463 330.217C574.587 328.168 574.007 326.164 573.933 324.27C573.65 316.516 581.437 314.644 585.925 311.869C590.264 309.182 593.34 304.798 592.88 298.763C592.374 292.089 587.426 289.204 584.454 284.248C577.276 272.31 592.805 261.495 595.495 250.438C597.338 242.861 594.752 237.508 590.65 231.892C587.307 227.31 582.656 221.694 584.721 215.086C586.504 209.359 592.909 207.465 596.06 202.795C599.121 198.258 600.696 192.377 600.666 186.628C600.637 181.474 599.299 176.628 596.728 172.465C593.132 166.65 586.356 161.716 588.882 153.412C590.011 149.712 592.567 148.06 592.731 143.721C592.865 140.064 591.423 136.65 589.625 133.787C586.713 129.184 581.838 124.514 577.618 121.761C572.239 118.236 562.52 118.126 562.654 127.928C562.683 130.681 563.694 133.302 565.091 135.527C566.101 137.135 569.712 140.042 569.668 141.849C569.623 143.655 566.621 147.641 565.908 149.47C563.843 154.756 562.609 160.461 561.94 166.21C561.019 174.007 561.108 181.958 562.178 189.734C562.624 192.927 563.932 196.297 563.144 199.447C562.386 202.465 560.157 204.711 557.973 206.319C554.54 208.874 550.171 210.152 547.437 213.874C543.142 219.711 546.263 226.231 549.309 231.76C552.073 236.759 555.714 243.301 552.162 249.028C549.592 253.169 544.494 253.433 541.686 257.156C537.911 262.156 541.404 266.142 543.157 271.164C545.416 277.662 544.361 283.94 540.735 289.534C534.761 298.741 517.122 302.111 520.688 315.878C521.595 319.38 522.828 321.516 522.769 325.283C522.724 329.336 521.55 333.212 521.892 337.287C522.442 343.763 526.469 348.961 527.301 355.304C528.995 368.3 513.942 372.507 521.773 385.436C523.556 388.388 525.132 391.053 525.741 394.709C526.097 396.912 524.507 404.048 525.28 405.458C528.728 411.78 541.121 405.744 544.985 403.916C549.636 401.648 565.656 397.375 562.312 388.234Z" fill="#F5F5F5"/>
<path d="M593.637 370.899C593.637 370.899 592.151 422.264 535.415 422.264C478.678 422.264 477.192 370.899 477.192 370.899H593.637Z" fill="#F0F0F0"/>
<path d="M367.777 834C570.46 834 734.767 822.837 734.767 809.066C734.767 795.296 570.46 784.133 367.777 784.133C165.094 784.133 0.787598 795.296 0.787598 809.066C0.787598 822.837 165.094 834 367.777 834Z" fill="#F5F5F5"/>
<g opacity="0.2">
<path opacity="0.2" d="M587.131 786.049L447.124 526.756L307.116 786.049H587.131Z" fill="#4476BD"/>
<path opacity="0.2" d="M587.131 347.397L447.124 606.668L307.116 347.397H587.131Z" fill="#4476BD"/>
</g>
<path d="M472.778 500.479L452.29 538.43C450.069 542.527 444.178 542.527 441.98 538.43L421.492 500.479C413.402 485.501 424.218 467.33 441.21 467.33H453.059C470.03 467.308 480.845 485.501 472.778 500.479Z" fill="#4476BD"/>
<path d="M449.344 720.586L512.896 746.798C518.831 749.242 517.095 758.119 510.654 758.119H383.55C377.131 758.119 375.372 749.265 381.308 746.798L444.86 720.586C446.31 719.992 447.915 719.992 449.344 720.586Z" fill="#4476BD"/>
<path d="M447.124 670.719C451.628 670.719 455.279 667.061 455.279 662.548C455.279 658.035 451.628 654.376 447.124 654.376C442.62 654.376 438.968 658.035 438.968 662.548C438.968 667.061 442.62 670.719 447.124 670.719Z" fill="#4476BD"/>
<path d="M447.124 581.403C449.443 581.403 451.322 579.52 451.322 577.196C451.322 574.873 449.443 572.989 447.124 572.989C444.805 572.989 442.925 574.873 442.925 577.196C442.925 579.52 444.805 581.403 447.124 581.403Z" fill="#4476BD"/>
<path d="M447.124 622.658C449.758 622.658 451.894 620.518 451.894 617.879C451.894 615.239 449.758 613.099 447.124 613.099C444.489 613.099 442.353 615.239 442.353 617.879C442.353 620.518 444.489 622.658 447.124 622.658Z" fill="#4476BD"/>
<path d="M586.428 773.251H307.819C300.807 773.251 295.069 779 295.069 786.027C295.069 793.053 300.807 798.802 307.819 798.802H586.406C593.418 798.802 599.156 793.053 599.156 786.027C599.178 779 593.44 773.251 586.428 773.251Z" fill="#4476BD"/>
<path d="M586.428 334.622H307.819C300.807 334.622 295.069 340.371 295.069 347.397C295.069 354.424 300.807 360.172 307.819 360.172H586.406C593.418 360.172 599.156 354.424 599.156 347.397C599.178 340.371 593.44 334.622 586.428 334.622Z" fill="#4476BD"/>
<path d="M221.999 781.225L206.501 776.181L216.13 739.552L231.628 744.596L221.999 781.225Z" fill="#FF8B7B"/>
<path d="M206.26 774.111L223.67 779.771C224.307 779.969 224.637 780.564 224.483 781.203L220.856 795.278C220.482 796.731 218.702 797.657 217.251 797.15C211.228 795.079 208.436 793.78 200.786 791.291C196.082 789.749 180.54 785.74 174.033 783.626C167.68 781.555 169.79 775.124 172.736 775.432C185.948 776.842 197.774 776.203 203.27 774.177C204.281 773.846 205.336 773.824 206.26 774.111Z" fill="#263238"/>
<path opacity="0.2" d="M231.628 744.596L216.13 739.574L211.162 758.45L226.682 763.494L231.628 744.596Z" fill="black"/>
<path d="M273.988 373.829C273.988 373.829 246.18 502.792 239.651 549.157C232.507 599.928 205.666 752.393 205.666 752.393L234.441 760.366C234.441 760.366 274.318 612.505 285.947 563.144C298.587 509.576 332.198 373.851 332.198 373.851H273.988V373.829Z" fill="#4476BD"/>
<path opacity="0.3" d="M308.369 416.119C297.4 441.096 291.948 495.501 296.213 520.413C303.995 488.365 313.359 450.259 320.591 420.942C318.151 412.44 314.107 403.057 308.369 416.119Z" fill="black"/>
<path d="M235.167 760.939L204.347 752.437L204.941 739.86L239.651 751.864L235.167 760.939Z" fill="#263238"/>
<path d="M199.885 775.036C201.314 775.498 203.006 775.718 204.193 775.829C204.347 775.851 204.479 775.763 204.567 775.63C204.633 775.498 204.633 775.344 204.545 775.212C204.171 774.705 200.742 770.278 198.61 770.41C198.126 770.432 197.708 770.696 197.445 771.159C197.005 771.93 196.939 772.635 197.269 773.274C197.664 774.089 198.698 774.639 199.885 775.036ZM203.38 774.97C200.434 774.617 198.412 773.868 197.928 772.921C197.73 772.525 197.774 772.084 198.082 771.556C198.236 771.313 198.412 771.181 198.654 771.181C199.797 771.093 201.951 773.252 203.38 774.97Z" fill="#263238"/>
<path d="M204.127 775.807C204.193 775.829 204.237 775.829 204.303 775.829C204.435 775.807 204.545 775.719 204.589 775.609C204.655 775.433 206.457 771.071 205.38 769.045C205.095 768.494 204.633 768.164 204.017 768.032C203.27 767.878 202.676 768.12 202.347 768.693C201.445 770.278 202.698 774.265 203.951 775.697C203.995 775.741 204.061 775.785 204.127 775.807ZM204.039 768.825C204.347 768.913 204.567 769.111 204.721 769.397C205.358 770.609 204.655 773.208 204.149 774.662C203.182 773.076 202.435 770.124 203.028 769.089C203.138 768.891 203.336 768.671 203.885 768.781C203.929 768.781 203.973 768.803 204.039 768.825Z" fill="#263238"/>
<path d="M303.577 251.385C302.742 253.345 302.038 254.843 301.269 256.539C300.499 258.169 299.686 259.755 298.873 261.341C297.224 264.512 295.531 267.64 293.751 270.746C290.146 276.913 286.255 282.948 281.88 288.763C277.527 294.6 272.735 300.239 267.262 305.503C261.81 310.789 255.567 315.701 248.181 319.622L247.631 319.908C246.752 320.371 245.762 320.723 244.839 320.922C239.541 322.045 234.178 321.626 229.737 320.305C225.253 319.005 221.516 317.067 218.218 314.952C211.645 310.679 206.743 305.613 202.303 300.503C197.928 295.305 194.147 289.931 190.74 284.38C187.333 278.785 184.343 273.257 181.639 267.112C180.056 263.499 181.705 259.292 185.31 257.706C188.3 256.407 191.685 257.31 193.664 259.711L193.883 259.975C197.511 264.402 201.445 269.072 205.402 273.345C209.381 277.662 213.47 281.781 217.669 285.415C221.823 289.072 226.242 292.221 230.287 294.226C232.287 295.217 234.2 295.834 235.716 296.01C237.233 296.186 238.178 296.054 238.882 295.746L235.519 297.067C239.761 294.314 243.916 290.547 247.851 286.274C251.764 281.979 255.457 277.178 258.952 272.134C262.425 267.068 265.723 261.759 268.822 256.297C270.383 253.587 271.9 250.812 273.351 248.037L275.483 243.852C276.165 242.508 276.934 240.988 277.44 239.887L277.571 239.601C280.935 232.464 289.464 229.403 296.586 232.773C303.511 236.121 306.589 244.358 303.577 251.385Z" fill="#263238"/>
<path opacity="0.3" d="M267.635 281.296C274.538 262.927 289.2 262.618 295.553 267.486C295.092 268.345 294.608 269.204 294.124 270.063C290.695 276.032 286.936 281.847 282.803 287.486C278.67 293.102 274.142 298.587 269.02 303.741C267.437 305.305 265.811 306.847 264.118 308.345C263.766 299.688 264.426 289.887 267.635 281.296Z" fill="black"/>
<path d="M181.002 268.257L166.713 268.764L170.274 253.478C170.274 253.478 178.781 253.83 184.848 255.592C188.52 256.671 190.036 261.099 187.926 264.314V264.336C186.387 266.693 183.815 268.169 181.002 268.257Z" fill="#FF8B7B"/>
<path d="M189.047 255.328C187.86 254.381 186.321 253.5 184.343 252.883C183.134 259.138 175.638 269.711 175.638 269.711H181.595C183.156 269.711 184.629 269.028 185.64 267.817L189.817 262.817C191.663 260.548 191.355 257.156 189.047 255.328Z" fill="#4476BD"/>
<path d="M155.809 261.737L159.832 250.944L170.274 253.477L166.713 268.786L155.809 261.737Z" fill="#FF8B7B"/>
<path d="M335.474 788.362H319.185L318.613 750.543H334.902L335.474 788.362Z" fill="#FF8B7B"/>
<path d="M318.327 786.468H336.639C337.298 786.468 337.804 786.93 337.848 787.591L338.727 802.106C338.815 803.604 337.408 805.036 335.869 805.014C329.494 804.904 326.461 804.529 318.393 804.529C313.447 804.529 296.872 805.036 290.036 805.036C283.353 805.036 283.397 798.252 286.299 797.635C299.29 794.882 310.897 791.093 315.513 787.459C316.349 786.82 317.338 786.468 318.327 786.468Z" fill="#263238"/>
<path opacity="0.2" d="M334.924 750.565H318.613L318.899 770.058H335.21L334.924 750.565Z" fill="black"/>
<path d="M305.775 373.829C305.775 373.829 299.554 515.699 302.192 562.461C305.094 613.65 311.161 765.344 311.161 765.344H341.013C341.013 765.344 348.531 617.791 350.334 567.109C352.29 512.087 361.128 373.851 361.128 373.851H305.775V373.829Z" fill="#4476BD"/>
<path d="M342.222 765.344H309.974L307.512 753.318L343.102 755.102L342.222 765.344Z" fill="#263238"/>
<path d="M312.546 789.309C314.041 789.309 315.711 789 316.898 788.714C317.052 788.67 317.162 788.56 317.184 788.406C317.206 788.252 317.14 788.097 317.03 788.031C316.503 787.679 311.886 784.507 309.908 785.3C309.446 785.476 309.138 785.851 309.029 786.379C308.831 787.238 308.985 787.943 309.512 788.45C310.128 789.089 311.293 789.309 312.546 789.309ZM315.843 788.186C312.92 788.758 310.787 788.67 310.018 787.921C309.71 787.613 309.622 787.172 309.754 786.556C309.82 786.269 309.952 786.115 310.172 786.027C311.249 785.608 313.953 786.974 315.843 788.186Z" fill="#263238"/>
<path d="M316.81 788.736C316.876 788.736 316.92 788.714 316.986 788.692C317.096 788.626 317.184 788.516 317.184 788.384C317.206 788.186 317.558 783.494 315.931 781.908C315.491 781.49 314.942 781.313 314.326 781.379C313.579 781.468 313.095 781.886 312.941 782.525C312.568 784.309 314.986 787.723 316.613 788.692C316.679 788.736 316.744 788.736 316.81 788.736ZM314.568 782.128C314.876 782.128 315.162 782.238 315.382 782.459C316.371 783.406 316.503 786.093 316.459 787.657C315.052 786.468 313.425 783.868 313.667 782.701C313.711 782.481 313.843 782.216 314.392 782.15C314.458 782.128 314.524 782.128 314.568 782.128Z" fill="#263238"/>
<path d="M369.305 242.156C370.338 236.385 366.381 230.901 360.6 230.064L360.402 230.042C355.148 229.271 348.553 228.478 342.09 228.169C330.967 227.641 314.854 227.288 305.05 228.169C299.356 228.698 293.795 229.645 289.354 230.504C289.288 230.526 289.244 230.526 289.178 230.548C283.529 231.694 278.956 235.879 277.33 241.429C272.01 259.381 265.679 296.032 273.966 373.851H361.128C361.743 366.053 360.006 340.679 361.281 308.367C362.271 283.72 366.645 257.2 369.305 242.156Z" fill="#263238"/>
<path opacity="0.3" d="M368.47 246.958C366.667 257.398 364.425 271.583 362.886 286.539C362.886 286.539 354.928 270.9 353.478 257.531C352.049 244.161 363.414 243.214 368.47 246.958Z" fill="black"/>
<g opacity="0.2">
<g opacity="0.2">
<path opacity="0.2" d="M310.018 249.028C309.71 249.028 309.424 248.874 309.292 248.588C309.073 248.191 309.248 247.685 309.644 247.465L336.815 233.346C337.232 233.148 337.716 233.302 337.936 233.698C338.156 234.095 337.98 234.601 337.584 234.822L310.413 248.94C310.282 248.984 310.15 249.028 310.018 249.028Z" fill="white"/>
<path opacity="0.2" d="M322.461 250.306C322.241 250.306 322.043 250.218 321.889 250.063L307.007 235.218C306.677 234.887 306.677 234.381 307.007 234.05C307.337 233.72 307.842 233.72 308.172 234.05L323.054 248.896C323.384 249.226 323.384 249.733 323.054 250.063C322.878 250.24 322.681 250.306 322.461 250.306Z" fill="white"/>
</g>
<path opacity="0.2" d="M342.091 228.147C330.967 227.619 314.854 227.266 305.072 228.147C304.874 228.17 304.654 228.192 304.456 228.214C304.104 229.667 303.775 232.376 305.401 234.976C307.468 238.28 311.798 240.13 318.305 240.482C319.141 240.526 319.954 240.548 320.745 240.548C338.441 240.548 345.124 229.843 345.41 229.381L346.025 228.39C344.706 228.302 343.409 228.214 342.091 228.147Z" fill="white"/>
</g>
<path d="M306.83 228.015C317.602 225.46 319.492 218.786 318.767 211.451C318.613 209.667 318.305 207.817 317.91 205.989L331.407 194.755L341.321 186.518C338.573 198.478 335.474 220.262 343.541 228.235C343.541 228.235 336.859 239.27 318.437 238.257C302.851 237.42 306.83 228.015 306.83 228.015Z" fill="#FF8B7B"/>
<path opacity="0.2" d="M317.91 205.989C318.305 207.817 318.613 209.667 318.767 211.451C323.801 210.438 330.528 205.064 331.231 199.909C331.495 197.971 331.539 196.099 331.407 194.755L317.91 205.989Z" fill="black"/>
<path d="M310.677 148.677C303.357 152.994 304.522 164.095 302.522 171.98C307.182 172.443 314.524 164.139 314.524 164.139L318.899 151.518L310.677 148.677Z" fill="#263238"/>
<path d="M349.675 170.835C344.992 186.386 343.036 195.703 333.144 202.2C318.261 211.958 300.411 200.835 300.345 184.359C300.28 169.536 307.951 146.584 324.922 143.412C341.651 140.263 354.357 155.285 349.675 170.835Z" fill="#FF8B7B"/>
<path d="M335.056 184.029C346.047 171.254 332.308 164.954 343.541 156.078C330.901 156.672 310.084 155.769 306.369 147.091C302.654 138.413 314.085 126.651 323.603 125.549C334.682 124.272 332.22 137.906 332.22 137.906C332.22 137.906 374.295 135.285 360.93 153.192C371.042 152.575 368.272 168.985 350.664 182.795C346.245 184.403 335.056 184.029 335.056 184.029Z" fill="#263238"/>
<path d="M358.402 153.544C358.402 153.544 367.063 150.967 366.755 144.095C369.899 146.254 370.228 152.818 358.402 153.544Z" fill="#263238"/>
<path d="M352.247 187.069C349.455 190.505 345.564 192.575 342.244 193.17C337.254 194.073 336.089 189.448 338.573 184.954C340.816 180.901 346.113 175.527 350.598 176.672C354.994 177.774 355.434 183.126 352.247 187.069Z" fill="#FF8B7B"/>
<path d="M324.637 170.439C324.329 171.716 323.406 172.619 322.57 172.465C321.735 172.289 321.295 171.121 321.581 169.844C321.889 168.566 322.812 167.663 323.648 167.817C324.505 167.972 324.945 169.139 324.637 170.439Z" fill="#263238"/>
<path d="M310.063 167.509C309.755 168.787 308.831 169.69 307.996 169.536C307.16 169.36 306.72 168.192 307.006 166.915C307.314 165.637 308.238 164.734 309.073 164.888C309.931 165.064 310.371 166.232 310.063 167.509Z" fill="#263238"/>
<path d="M314.546 169.073C314.546 169.073 309.864 175.879 305.797 178.809C307.578 181.386 311.688 181.187 311.688 181.187L314.546 169.073Z" fill="#FF5652"/>
<path d="M316.151 185.703C321.317 186.122 324.46 183.104 324.592 182.972C324.746 182.818 324.746 182.575 324.592 182.421C324.438 182.267 324.197 182.267 324.043 182.421C323.999 182.465 320.438 185.879 314.766 184.734C314.546 184.69 314.348 184.822 314.304 185.042C314.26 185.241 314.392 185.461 314.612 185.505C315.14 185.593 315.645 185.659 316.151 185.703Z" fill="#263238"/>
<path d="M330.264 166.87C330.396 166.87 330.528 166.848 330.638 166.804C331.033 166.628 331.187 166.166 331.011 165.769C329.253 161.914 325.713 161.43 325.56 161.408C325.164 161.32 324.746 161.65 324.702 162.069C324.658 162.487 324.944 162.884 325.362 162.928C325.516 162.95 328.219 163.368 329.604 166.386C329.736 166.694 329.978 166.848 330.264 166.87Z" fill="#263238"/>
<path d="M306.457 158.743C306.698 158.809 306.962 158.787 307.16 158.611C309.93 156.452 312.678 157.289 312.7 157.289C313.117 157.421 313.535 157.201 313.667 156.783C313.799 156.386 313.579 155.946 313.161 155.814C313.007 155.77 309.6 154.734 306.193 157.377C305.863 157.642 305.797 158.126 306.061 158.457C306.171 158.611 306.303 158.699 306.457 158.743Z" fill="#263238"/>
<path d="M370.162 235.879L372.009 238.39L373.658 240.724C374.735 242.288 375.746 243.852 376.757 245.416C378.78 248.544 380.648 251.737 382.495 254.953C386.122 261.407 389.463 267.993 392.431 274.777C393.97 278.147 395.311 281.605 396.695 285.041C397.927 288.543 399.289 292.001 400.367 295.57C402.763 302.596 404.499 309.909 406.082 317.221L406.258 318.058C406.939 321.164 406.258 324.27 404.675 326.737C401.905 331.01 398.542 335.041 394.673 338.609C390.848 342.221 386.32 345.217 381.527 347.485C376.713 349.732 371.569 351.142 366.447 351.67C363.875 351.935 361.303 351.979 358.775 351.803C357.5 351.714 356.225 351.56 354.95 351.362C354.313 351.252 353.675 351.12 353.016 350.988L350.796 350.459C350.246 350.327 349.916 349.776 350.048 349.225L353.082 336.45C353.104 336.34 353.653 336.318 354.005 336.23L355.214 335.988C356.028 335.811 356.863 335.613 357.698 335.393C359.347 334.952 360.952 334.38 362.468 333.741C365.524 332.441 368.338 330.812 370.8 328.829C375.768 324.931 379.461 319.754 382.385 313.741L380.978 323.257C379.087 317.023 377.109 310.834 374.669 304.755C372.295 298.675 369.635 292.662 366.733 286.759C363.831 280.856 360.776 275.019 357.456 269.336C355.83 266.495 354.093 263.698 352.4 260.922L349.784 256.826L348.487 254.843L347.3 253.081L346.861 252.442C342.42 245.901 344.113 237.002 350.642 232.575C356.995 228.169 365.634 229.711 370.162 235.879Z" fill="#263238"/>
<path d="M341.035 349.071L336.287 356.847L356.819 356.01C356.819 356.01 362.183 342.177 354.84 339.997L352.005 340.79C347.454 342.045 343.519 345.019 341.035 349.071Z" fill="#FF8B7B"/>
<path d="M349.477 338.212C348.224 339.049 346.905 340.261 345.74 341.979C351.323 345.018 359.105 355.371 359.105 355.371L360.908 349.688C361.369 348.19 361.172 346.582 360.314 345.26L356.819 339.776C355.236 337.287 351.917 336.56 349.477 338.212Z" fill="#4476BD"/>
<path d="M338.112 368.763L355.016 367.265L356.819 356.01L336.309 356.825L338.112 368.763Z" fill="#FF8B7B"/>
<path d="M130.617 99.8666L129.496 97.9724C132.706 96.0561 136.091 94.3821 139.564 92.9724L140.399 95.0208C137.014 96.3644 133.739 98.0164 130.617 99.8666Z" fill="#4476BD"/>
<path d="M98.5225 138.655L96.4561 137.906C101.666 123.501 110.987 111.078 123.407 102.003L124.704 103.788C112.613 112.598 103.557 124.646 98.5225 138.655Z" fill="#4476BD"/>
<path d="M168.295 231.65C205.664 231.65 235.958 201.296 235.958 163.853C235.958 126.41 205.664 96.0564 168.295 96.0564C130.926 96.0564 100.633 126.41 100.633 163.853C100.633 201.296 130.926 231.65 168.295 231.65Z" fill="#4476BD"/>
<path opacity="0.6" d="M224.813 163.853C224.813 195.152 199.511 220.504 168.295 220.504C153.501 220.504 140.026 214.799 129.958 205.482C118.768 195.13 111.756 180.306 111.756 163.875C111.756 132.598 137.08 107.223 168.273 107.223C184.826 107.223 199.687 114.338 210.041 125.681C210.063 125.681 210.107 125.703 210.15 125.791C219.251 135.835 224.813 149.183 224.813 163.853Z" fill="white"/>
<path d="M224.813 163.853C224.813 195.152 199.511 220.504 168.295 220.504C153.501 220.504 140.026 214.799 129.958 205.482C120.637 195.394 114.943 181.87 114.943 167.046C114.943 135.769 140.268 110.417 171.461 110.417C186.409 110.417 199.928 116.188 210.041 125.703C210.062 125.703 210.106 125.725 210.15 125.813C219.251 135.835 224.813 149.183 224.813 163.853Z" fill="white"/>
<path d="M168.295 167.157C167.46 167.157 166.603 166.826 165.965 166.187L138.399 138.567C137.102 137.267 137.102 135.175 138.399 133.897C139.696 132.597 141.784 132.597 143.059 133.897L168.295 159.183L182.87 144.58C184.167 143.28 186.255 143.28 187.53 144.58C188.827 145.879 188.827 147.972 187.53 149.249L170.626 166.187C169.988 166.826 169.131 167.157 168.295 167.157Z" fill="#263238"/>
</svg>
